<svg xmlns="http://www.w3.org/2000/svg" xmlns:xlink="http://www.w3.org/1999/xlink" width="800" zoomAndPan="magnify" viewBox="0 0 600 599.999999" height="800" preserveAspectRatio="xMidYMid meet" version="1.0"><defs><clipPath id="f0bc36306f"><path d="M 473 299 L 591.867188 299 L 591.867188 518 L 473 518 Z M 473 299 " clip-rule="nonzero"/></clipPath></defs><path fill="#000000" d="M 301.476562 572.070312 C 298.589844 572.039062 295.726562 571.746094 292.890625 571.1875 C 290.058594 570.628906 287.296875 569.816406 284.613281 568.746094 C 281.929688 567.679688 279.367188 566.375 276.921875 564.835938 C 274.480469 563.292969 272.199219 561.542969 270.078125 559.578125 C 269.613281 559.140625 269.125 558.722656 268.617188 558.332031 C 268.109375 557.9375 267.585938 557.566406 267.042969 557.222656 C 266.503906 556.878906 265.945312 556.5625 265.375 556.269531 C 264.800781 555.980469 264.21875 555.714844 263.621094 555.476562 C 263.023438 555.242188 262.417969 555.035156 261.800781 554.855469 C 261.183594 554.675781 260.5625 554.527344 259.929688 554.40625 C 259.300781 554.285156 258.664062 554.195312 258.027344 554.132812 C 257.386719 554.074219 256.746094 554.042969 256.105469 554.042969 C 255.460938 554.042969 254.820312 554.074219 254.183594 554.132812 C 253.542969 554.195312 252.910156 554.285156 252.277344 554.40625 C 251.648438 554.527344 251.023438 554.675781 250.40625 554.855469 C 249.792969 555.035156 249.183594 555.242188 248.585938 555.476562 C 247.992188 555.714844 247.40625 555.980469 246.835938 556.269531 C 246.261719 556.5625 245.707031 556.878906 245.164062 557.222656 C 244.621094 557.566406 244.097656 557.9375 243.589844 558.332031 C 243.085938 558.722656 242.597656 559.140625 242.128906 559.578125 C 240.007812 561.542969 237.726562 563.292969 235.285156 564.835938 C 232.84375 566.375 230.277344 567.679688 227.59375 568.746094 C 224.910156 569.816406 222.148438 570.628906 219.316406 571.1875 C 216.480469 571.746094 213.621094 572.039062 210.730469 572.070312 C 158.152344 572.070312 119.984375 511.039062 119.984375 426.949219 C 119.984375 376.9375 152.554688 336.25 192.582031 336.25 C 195.191406 336.222656 197.800781 336.328125 200.398438 336.574219 C 203 336.816406 205.582031 337.195312 208.140625 337.707031 C 210.703125 338.21875 213.230469 338.859375 215.722656 339.636719 C 218.21875 340.410156 220.664062 341.3125 223.066406 342.339844 C 225.464844 343.371094 227.804688 344.523438 230.085938 345.792969 C 232.367188 347.066406 234.574219 348.453125 236.710938 349.957031 C 238.847656 351.457031 240.898438 353.066406 242.867188 354.78125 C 244.835938 356.496094 246.710938 358.308594 248.492188 360.21875 C 248.996094 360.714844 249.539062 361.152344 250.128906 361.539062 C 250.71875 361.925781 251.339844 362.25 251.992188 362.519531 C 252.644531 362.785156 253.316406 362.984375 254.007812 363.121094 C 254.699219 363.253906 255.398438 363.324219 256.105469 363.324219 C 256.808594 363.324219 257.507812 363.253906 258.199219 363.121094 C 258.890625 362.984375 259.5625 362.785156 260.214844 362.519531 C 260.867188 362.25 261.488281 361.925781 262.078125 361.539062 C 262.667969 361.152344 263.214844 360.714844 263.71875 360.21875 C 265.496094 358.308594 267.371094 356.496094 269.339844 354.78125 C 271.308594 353.066406 273.363281 351.457031 275.496094 349.957031 C 277.632812 348.453125 279.839844 347.066406 282.121094 345.792969 C 284.402344 344.523438 286.742188 343.371094 289.144531 342.339844 C 291.542969 341.3125 293.992188 340.410156 296.484375 339.636719 C 298.976562 338.859375 301.507812 338.21875 304.066406 337.707031 C 306.628906 337.195312 309.207031 336.816406 311.808594 336.574219 C 314.410156 336.328125 317.015625 336.222656 319.625 336.25 C 359.65625 336.25 392.222656 376.9375 392.222656 426.949219 C 392.222656 511.039062 354.054688 572.070312 301.476562 572.070312 Z M 256.105469 535.789062 C 258.496094 535.816406 260.863281 536.054688 263.207031 536.515625 C 265.554688 536.972656 267.839844 537.640625 270.066406 538.511719 C 272.289062 539.386719 274.417969 540.457031 276.445312 541.71875 C 278.472656 542.984375 280.371094 544.417969 282.140625 546.03125 C 283.4375 547.253906 284.839844 548.347656 286.339844 549.316406 C 287.84375 550.28125 289.417969 551.101562 291.074219 551.777344 C 292.726562 552.453125 294.425781 552.972656 296.175781 553.332031 C 297.925781 553.695312 299.691406 553.894531 301.476562 553.929688 C 342.867188 553.929688 374.074219 499.335938 374.074219 426.949219 C 374.074219 386.941406 349.65625 354.386719 319.625 354.386719 C 315.65625 354.335938 311.71875 354.691406 307.820312 355.457031 C 303.925781 356.21875 300.148438 357.378906 296.492188 358.929688 C 292.835938 360.484375 289.378906 362.394531 286.121094 364.667969 C 282.863281 366.941406 279.875 369.523438 277.15625 372.417969 C 276.488281 373.140625 275.78125 373.828125 275.039062 374.476562 C 274.300781 375.128906 273.527344 375.738281 272.722656 376.308594 C 271.921875 376.878906 271.089844 377.40625 270.230469 377.890625 C 269.375 378.375 268.492188 378.8125 267.589844 379.207031 C 266.6875 379.601562 265.765625 379.949219 264.828125 380.246094 C 263.886719 380.546875 262.933594 380.796875 261.96875 381 C 261.007812 381.199219 260.035156 381.351562 259.054688 381.453125 C 258.074219 381.554688 257.089844 381.605469 256.105469 381.605469 C 255.117188 381.605469 254.136719 381.554688 253.15625 381.453125 C 252.175781 381.351562 251.203125 381.199219 250.238281 381 C 249.273438 380.796875 248.320312 380.546875 247.382812 380.246094 C 246.441406 379.949219 245.523438 379.601562 244.617188 379.207031 C 243.714844 378.8125 242.835938 378.375 241.976562 377.890625 C 241.117188 377.40625 240.289062 376.878906 239.484375 376.308594 C 238.679688 375.738281 237.910156 375.128906 237.167969 374.476562 C 236.425781 373.828125 235.722656 373.140625 235.050781 372.417969 C 232.332031 369.523438 229.34375 366.941406 226.085938 364.667969 C 222.828125 362.394531 219.375 360.484375 215.71875 358.929688 C 212.0625 357.378906 208.285156 356.21875 204.386719 355.457031 C 200.488281 354.691406 196.554688 354.335938 192.582031 354.386719 C 162.554688 354.386719 138.132812 386.941406 138.132812 426.949219 C 138.132812 499.335938 169.339844 553.929688 210.730469 553.929688 C 212.515625 553.894531 214.285156 553.695312 216.03125 553.332031 C 217.78125 552.972656 219.480469 552.453125 221.136719 551.777344 C 222.789062 551.101562 224.367188 550.28125 225.867188 549.316406 C 227.367188 548.347656 228.769531 547.253906 230.070312 546.03125 C 231.835938 544.417969 233.734375 542.984375 235.761719 541.71875 C 237.792969 540.457031 239.917969 539.386719 242.144531 538.511719 C 244.367188 537.636719 246.652344 536.972656 249 536.515625 C 251.34375 536.054688 253.714844 535.816406 256.105469 535.789062 Z M 256.105469 535.789062 " fill-opacity="1" fill-rule="nonzero"/><path fill="#000000" d="M 256.105469 372.527344 C 255.507812 372.527344 254.917969 372.46875 254.332031 372.355469 C 253.75 372.238281 253.183594 372.066406 252.632812 371.839844 C 252.082031 371.609375 251.558594 371.332031 251.0625 371 C 250.566406 370.667969 250.109375 370.292969 249.6875 369.871094 C 249.265625 369.449219 248.890625 368.992188 248.558594 368.496094 C 248.226562 368.003906 247.949219 367.480469 247.71875 366.929688 C 247.492188 366.378906 247.320312 365.8125 247.203125 365.226562 C 247.085938 364.644531 247.03125 364.054688 247.03125 363.457031 C 247.03125 318.445312 275.523438 281.828125 310.550781 281.828125 C 311.148438 281.828125 311.738281 281.886719 312.324219 282.003906 C 312.90625 282.117188 313.472656 282.289062 314.023438 282.519531 C 314.574219 282.746094 315.097656 283.027344 315.59375 283.355469 C 316.089844 283.6875 316.546875 284.0625 316.96875 284.484375 C 317.390625 284.90625 317.765625 285.363281 318.097656 285.859375 C 318.429688 286.355469 318.707031 286.878906 318.9375 287.425781 C 319.164062 287.976562 319.335938 288.542969 319.453125 289.128906 C 319.570312 289.714844 319.625 290.304688 319.625 290.898438 C 319.625 291.492188 319.570312 292.082031 319.453125 292.667969 C 319.335938 293.25 319.164062 293.820312 318.9375 294.371094 C 318.707031 294.917969 318.429688 295.441406 318.097656 295.9375 C 317.765625 296.433594 317.390625 296.890625 316.96875 297.3125 C 316.546875 297.734375 316.089844 298.109375 315.59375 298.441406 C 315.097656 298.769531 314.574219 299.050781 314.023438 299.277344 C 313.472656 299.503906 312.90625 299.679688 312.324219 299.792969 C 311.738281 299.910156 311.148438 299.96875 310.550781 299.96875 C 285.535156 299.96875 265.179688 328.457031 265.179688 363.457031 C 265.179688 364.054688 265.121094 364.644531 265.003906 365.226562 C 264.886719 365.8125 264.714844 366.378906 264.488281 366.929688 C 264.261719 367.480469 263.980469 368.003906 263.648438 368.496094 C 263.320312 368.992188 262.941406 369.449219 262.519531 369.871094 C 262.097656 370.292969 261.640625 370.667969 261.144531 371 C 260.648438 371.332031 260.128906 371.609375 259.578125 371.839844 C 259.027344 372.066406 258.457031 372.238281 257.875 372.355469 C 257.289062 372.46875 256.699219 372.527344 256.105469 372.527344 Z M 256.105469 372.527344 " fill-opacity="1" fill-rule="nonzero"/><path fill="#000000" d="M 156.28125 145.777344 L 83.6875 145.777344 C 83.089844 145.777344 82.5 145.71875 81.914062 145.605469 C 81.332031 145.488281 80.761719 145.316406 80.214844 145.085938 C 79.664062 144.859375 79.140625 144.582031 78.644531 144.25 C 78.148438 143.917969 77.691406 143.542969 77.269531 143.121094 C 76.847656 142.699219 76.472656 142.242188 76.140625 141.746094 C 75.808594 141.25 75.53125 140.730469 75.300781 140.179688 C 75.074219 139.628906 74.902344 139.0625 74.785156 138.476562 C 74.667969 137.894531 74.609375 137.304688 74.609375 136.707031 L 74.609375 109.496094 C 74.609375 108.605469 74.65625 107.71875 74.742188 106.832031 C 74.828125 105.945312 74.960938 105.0625 75.132812 104.1875 C 75.308594 103.316406 75.523438 102.453125 75.785156 101.597656 C 76.042969 100.746094 76.34375 99.90625 76.683594 99.085938 C 77.023438 98.261719 77.40625 97.457031 77.824219 96.671875 C 78.246094 95.886719 78.703125 95.121094 79.199219 94.378906 C 79.695312 93.640625 80.226562 92.925781 80.789062 92.234375 C 81.355469 91.546875 81.953125 90.886719 82.585938 90.257812 C 83.214844 89.628906 83.875 89.03125 84.5625 88.464844 C 85.253906 87.898438 85.96875 87.367188 86.710938 86.875 C 87.453125 86.378906 88.214844 85.921875 89 85.5 C 89.789062 85.082031 90.59375 84.699219 91.417969 84.359375 C 92.242188 84.019531 93.078125 83.71875 93.933594 83.460938 C 94.785156 83.199219 95.648438 82.984375 96.523438 82.808594 C 97.398438 82.636719 98.28125 82.507812 99.167969 82.417969 C 100.054688 82.332031 100.945312 82.289062 101.835938 82.289062 L 138.132812 82.289062 C 139.023438 82.289062 139.914062 82.332031 140.800781 82.417969 C 141.6875 82.507812 142.570312 82.636719 143.445312 82.808594 C 144.320312 82.984375 145.183594 83.199219 146.035156 83.460938 C 146.890625 83.71875 147.726562 84.019531 148.550781 84.359375 C 149.375 84.699219 150.179688 85.082031 150.96875 85.5 C 151.753906 85.921875 152.515625 86.378906 153.257812 86.875 C 154 87.367188 154.714844 87.898438 155.40625 88.464844 C 156.09375 89.03125 156.753906 89.628906 157.382812 90.257812 C 158.015625 90.886719 158.613281 91.546875 159.179688 92.234375 C 159.742188 92.925781 160.273438 93.640625 160.769531 94.378906 C 161.265625 95.121094 161.722656 95.886719 162.144531 96.671875 C 162.5625 97.457031 162.945312 98.261719 163.285156 99.085938 C 163.625 99.90625 163.925781 100.746094 164.183594 101.597656 C 164.445312 102.453125 164.660156 103.316406 164.835938 104.1875 C 165.007812 105.0625 165.140625 105.945312 165.226562 106.832031 C 165.3125 107.71875 165.359375 108.605469 165.359375 109.496094 L 165.359375 136.707031 C 165.359375 137.304688 165.300781 137.894531 165.183594 138.476562 C 165.066406 139.0625 164.894531 139.628906 164.667969 140.179688 C 164.4375 140.730469 164.160156 141.25 163.828125 141.746094 C 163.496094 142.242188 163.121094 142.699219 162.699219 143.121094 C 162.277344 143.542969 161.820312 143.917969 161.324219 144.25 C 160.828125 144.582031 160.304688 144.859375 159.753906 145.085938 C 159.207031 145.316406 158.636719 145.488281 158.054688 145.605469 C 157.46875 145.71875 156.878906 145.777344 156.28125 145.777344 Z M 92.761719 127.636719 L 147.207031 127.636719 L 147.207031 109.496094 C 147.207031 108.902344 147.148438 108.3125 147.035156 107.726562 C 146.917969 107.144531 146.746094 106.578125 146.515625 106.027344 C 146.289062 105.476562 146.011719 104.953125 145.679688 104.457031 C 145.347656 103.964844 144.972656 103.503906 144.550781 103.085938 C 144.128906 102.664062 143.671875 102.285156 143.175781 101.957031 C 142.679688 101.625 142.15625 101.347656 141.605469 101.117188 C 141.054688 100.890625 140.488281 100.71875 139.902344 100.601562 C 139.320312 100.484375 138.730469 100.425781 138.132812 100.425781 L 101.835938 100.425781 C 101.238281 100.425781 100.648438 100.484375 100.066406 100.601562 C 99.480469 100.71875 98.914062 100.890625 98.363281 101.117188 C 97.8125 101.347656 97.289062 101.625 96.792969 101.957031 C 96.296875 102.285156 95.839844 102.664062 95.417969 103.085938 C 94.996094 103.503906 94.621094 103.964844 94.289062 104.457031 C 93.957031 104.953125 93.679688 105.476562 93.453125 106.027344 C 93.222656 106.578125 93.050781 107.144531 92.933594 107.726562 C 92.820312 108.3125 92.761719 108.902344 92.761719 109.496094 Z M 92.761719 127.636719 " fill-opacity="1" fill-rule="nonzero"/><path fill="#000000" d="M 165.359375 553.929688 L 56.460938 553.929688 C 55.570312 553.929688 54.679688 553.886719 53.792969 553.796875 C 52.90625 553.710938 52.023438 553.582031 51.152344 553.40625 C 50.277344 553.234375 49.414062 553.015625 48.558594 552.757812 C 47.707031 552.5 46.867188 552.199219 46.042969 551.859375 C 45.21875 551.515625 44.414062 551.136719 43.628906 550.714844 C 42.84375 550.296875 42.078125 549.839844 41.335938 549.34375 C 40.59375 548.847656 39.878906 548.316406 39.191406 547.753906 C 38.5 547.1875 37.84375 546.589844 37.210938 545.960938 C 36.582031 545.328125 35.984375 544.671875 35.417969 543.980469 C 34.851562 543.292969 34.320312 542.578125 33.824219 541.835938 C 33.332031 541.09375 32.871094 540.332031 32.453125 539.546875 C 32.03125 538.761719 31.652344 537.957031 31.308594 537.132812 C 30.96875 536.308594 30.667969 535.46875 30.410156 534.617188 C 30.152344 533.765625 29.933594 532.902344 29.761719 532.027344 C 29.585938 531.152344 29.457031 530.273438 29.367188 529.386719 C 29.28125 528.5 29.238281 527.609375 29.238281 526.71875 L 29.238281 385.769531 C 29.273438 385.042969 29.21875 384.320312 29.0625 383.605469 C 28.910156 382.890625 28.667969 382.207031 28.332031 381.558594 C 28 380.910156 27.585938 380.3125 27.09375 379.773438 C 26.605469 379.230469 26.050781 378.765625 25.4375 378.371094 C 24.53125 377.882812 23.65625 377.347656 22.8125 376.765625 C 21.96875 376.179688 21.160156 375.550781 20.390625 374.875 C 19.617188 374.199219 18.886719 373.480469 18.195312 372.722656 C 17.503906 371.964844 16.855469 371.167969 16.253906 370.335938 C 15.652344 369.503906 15.101562 368.644531 14.597656 367.75 C 14.09375 366.855469 13.640625 365.933594 13.242188 364.988281 C 12.84375 364.042969 12.5 363.078125 12.207031 362.097656 C 11.917969 361.113281 11.683594 360.113281 11.507812 359.105469 C 11.328125 358.09375 11.210938 357.074219 11.148438 356.050781 C 11.085938 355.027344 11.082031 354.003906 11.132812 352.976562 C 11.1875 351.953125 11.300781 350.933594 11.46875 349.921875 C 11.636719 348.910156 11.863281 347.910156 12.144531 346.925781 C 12.425781 345.9375 12.761719 344.972656 13.15625 344.023438 C 13.546875 343.074219 13.988281 342.152344 14.484375 341.253906 C 14.980469 340.355469 15.527344 339.488281 16.121094 338.648438 C 16.714844 337.8125 17.355469 337.011719 18.039062 336.25 C 17.484375 335.632812 16.960938 334.992188 16.46875 334.328125 C 15.972656 333.664062 15.507812 332.976562 15.078125 332.269531 C 14.644531 331.5625 14.246094 330.839844 13.878906 330.097656 C 13.511719 329.351562 13.183594 328.59375 12.886719 327.820312 C 12.589844 327.046875 12.328125 326.261719 12.105469 325.464844 C 11.878906 324.667969 11.691406 323.863281 11.542969 323.046875 C 11.390625 322.234375 11.277344 321.414062 11.203125 320.589844 C 11.125 319.761719 11.089844 318.9375 11.089844 318.109375 C 11.089844 317.28125 11.125 316.453125 11.203125 315.628906 C 11.277344 314.804688 11.390625 313.984375 11.542969 313.167969 C 11.691406 312.355469 11.878906 311.550781 12.105469 310.753906 C 12.328125 309.953125 12.589844 309.167969 12.886719 308.394531 C 13.183594 307.621094 13.511719 306.863281 13.878906 306.121094 C 14.246094 305.378906 14.644531 304.652344 15.078125 303.945312 C 15.507812 303.238281 15.972656 302.554688 16.46875 301.890625 C 16.960938 301.226562 17.484375 300.585938 18.039062 299.96875 C 17.355469 299.203125 16.714844 298.402344 16.121094 297.566406 C 15.527344 296.730469 14.980469 295.863281 14.484375 294.964844 C 13.988281 294.066406 13.546875 293.144531 13.152344 292.195312 C 12.761719 291.246094 12.425781 290.28125 12.144531 289.292969 C 11.859375 288.304688 11.636719 287.308594 11.464844 286.296875 C 11.296875 285.285156 11.183594 284.265625 11.132812 283.242188 C 11.078125 282.214844 11.082031 281.191406 11.144531 280.167969 C 11.207031 279.144531 11.324219 278.125 11.503906 277.117188 C 11.679688 276.105469 11.914062 275.109375 12.203125 274.125 C 12.492188 273.140625 12.839844 272.175781 13.238281 271.230469 C 13.636719 270.285156 14.089844 269.363281 14.589844 268.46875 C 15.09375 267.574219 15.648438 266.714844 16.25 265.882812 C 16.847656 265.050781 17.496094 264.253906 18.1875 263.496094 C 18.878906 262.738281 19.609375 262.019531 20.382812 261.34375 C 21.152344 260.667969 21.960938 260.039062 22.804688 259.453125 C 23.648438 258.867188 24.523438 258.332031 25.425781 257.847656 C 26.042969 257.453125 26.597656 256.988281 27.089844 256.445312 C 27.582031 255.90625 27.996094 255.3125 28.332031 254.660156 C 28.667969 254.011719 28.910156 253.328125 29.0625 252.613281 C 29.21875 251.898438 29.277344 251.175781 29.238281 250.445312 L 29.238281 218.339844 C 29.238281 193.332031 45.519531 172.988281 65.535156 172.988281 C 75.375 172.988281 83.6875 160.527344 83.6875 145.777344 L 83.6875 136.707031 L 101.835938 136.707031 L 101.835938 145.777344 C 101.835938 170.785156 85.554688 191.128906 65.535156 191.128906 C 55.699219 191.128906 47.386719 203.589844 47.386719 218.339844 L 47.386719 250.445312 C 47.410156 251.625 47.355469 252.800781 47.222656 253.976562 C 47.085938 255.148438 46.875 256.304688 46.582031 257.449219 C 46.292969 258.59375 45.925781 259.710938 45.480469 260.804688 C 45.039062 261.902344 44.523438 262.960938 43.9375 263.984375 C 43.351562 265.007812 42.699219 265.992188 41.984375 266.925781 C 41.265625 267.863281 40.484375 268.746094 39.648438 269.578125 C 38.808594 270.410156 37.921875 271.183594 36.976562 271.894531 C 36.035156 272.605469 35.050781 273.25 34.019531 273.828125 C 33.578125 274.066406 33.15625 274.335938 32.757812 274.644531 C 32.359375 274.949219 31.988281 275.289062 31.648438 275.65625 C 31.304688 276.023438 30.996094 276.417969 30.71875 276.835938 C 30.441406 277.257812 30.203125 277.695312 30 278.15625 C 29.796875 278.613281 29.632812 279.085938 29.507812 279.574219 C 29.382812 280.0625 29.296875 280.554688 29.253906 281.054688 C 29.210938 281.554688 29.210938 282.054688 29.25 282.558594 C 29.292969 283.058594 29.375 283.550781 29.496094 284.039062 C 29.617188 284.527344 29.78125 285 29.980469 285.460938 C 30.183594 285.921875 30.421875 286.363281 30.695312 286.78125 C 30.96875 287.203125 31.277344 287.597656 31.617188 287.96875 C 31.957031 288.339844 32.324219 288.675781 32.722656 288.984375 C 33.121094 289.292969 33.539062 289.566406 33.980469 289.808594 C 34.421875 290.046875 34.882812 290.246094 35.359375 290.410156 C 35.832031 290.570312 36.320312 290.695312 36.816406 290.777344 C 37.3125 290.859375 37.808594 290.898438 38.3125 290.898438 C 38.910156 290.898438 39.5 290.957031 40.082031 291.074219 C 40.667969 291.1875 41.234375 291.359375 41.785156 291.589844 C 42.335938 291.816406 42.859375 292.097656 43.355469 292.425781 C 43.847656 292.757812 44.308594 293.132812 44.730469 293.554688 C 45.152344 293.976562 45.527344 294.433594 45.859375 294.929688 C 46.1875 295.425781 46.46875 295.945312 46.695312 296.496094 C 46.925781 297.046875 47.097656 297.613281 47.210938 298.199219 C 47.328125 298.78125 47.386719 299.371094 47.386719 299.96875 C 47.386719 300.5625 47.328125 301.152344 47.210938 301.738281 C 47.097656 302.320312 46.925781 302.890625 46.695312 303.4375 C 46.46875 303.988281 46.1875 304.511719 45.859375 305.007812 C 45.527344 305.503906 45.152344 305.960938 44.730469 306.382812 C 44.308594 306.804688 43.847656 307.179688 43.355469 307.511719 C 42.859375 307.839844 42.335938 308.121094 41.785156 308.347656 C 41.234375 308.574219 40.667969 308.746094 40.082031 308.863281 C 39.5 308.980469 38.910156 309.039062 38.3125 309.039062 C 37.714844 309.039062 37.125 309.097656 36.542969 309.210938 C 35.957031 309.328125 35.390625 309.5 34.839844 309.730469 C 34.289062 309.957031 33.765625 310.234375 33.269531 310.566406 C 32.777344 310.898438 32.316406 311.273438 31.894531 311.695312 C 31.472656 312.117188 31.097656 312.574219 30.765625 313.070312 C 30.4375 313.566406 30.15625 314.085938 29.929688 314.636719 C 29.699219 315.1875 29.527344 315.753906 29.414062 316.339844 C 29.296875 316.921875 29.238281 317.511719 29.238281 318.109375 C 29.238281 318.703125 29.296875 319.292969 29.414062 319.878906 C 29.527344 320.460938 29.699219 321.027344 29.929688 321.578125 C 30.15625 322.128906 30.4375 322.652344 30.765625 323.148438 C 31.097656 323.644531 31.472656 324.101562 31.894531 324.523438 C 32.316406 324.941406 32.777344 325.320312 33.269531 325.648438 C 33.765625 325.980469 34.289062 326.261719 34.839844 326.488281 C 35.390625 326.714844 35.957031 326.886719 36.542969 327.003906 C 37.125 327.121094 37.714844 327.179688 38.3125 327.179688 C 38.910156 327.179688 39.5 327.238281 40.082031 327.351562 C 40.667969 327.46875 41.234375 327.640625 41.785156 327.867188 C 42.335938 328.097656 42.859375 328.375 43.355469 328.707031 C 43.847656 329.039062 44.308594 329.414062 44.730469 329.835938 C 45.152344 330.257812 45.527344 330.714844 45.859375 331.210938 C 46.1875 331.703125 46.46875 332.226562 46.695312 332.777344 C 46.925781 333.328125 47.097656 333.894531 47.210938 334.480469 C 47.328125 335.0625 47.386719 335.652344 47.386719 336.25 C 47.386719 336.84375 47.328125 337.433594 47.210938 338.019531 C 47.097656 338.601562 46.925781 339.167969 46.695312 339.71875 C 46.46875 340.269531 46.1875 340.792969 45.859375 341.289062 C 45.527344 341.78125 45.152344 342.242188 44.730469 342.660156 C 44.308594 343.082031 43.847656 343.460938 43.355469 343.789062 C 42.859375 344.121094 42.335938 344.398438 41.785156 344.628906 C 41.234375 344.855469 40.667969 345.027344 40.082031 345.144531 C 39.5 345.261719 38.910156 345.320312 38.3125 345.320312 C 37.808594 345.316406 37.3125 345.359375 36.816406 345.441406 C 36.320312 345.523438 35.835938 345.648438 35.359375 345.808594 C 34.882812 345.972656 34.425781 346.175781 33.984375 346.414062 C 33.542969 346.652344 33.121094 346.925781 32.726562 347.234375 C 32.332031 347.542969 31.960938 347.882812 31.621094 348.253906 C 31.28125 348.625 30.976562 349.019531 30.699219 349.4375 C 30.425781 349.859375 30.1875 350.300781 29.988281 350.761719 C 29.789062 351.222656 29.625 351.695312 29.503906 352.183594 C 29.382812 352.667969 29.300781 353.164062 29.261719 353.664062 C 29.21875 354.164062 29.222656 354.664062 29.265625 355.164062 C 29.308594 355.664062 29.390625 356.160156 29.515625 356.644531 C 29.640625 357.132812 29.804688 357.605469 30.007812 358.0625 C 30.214844 358.523438 30.453125 358.960938 30.730469 359.382812 C 31.007812 359.800781 31.316406 360.195312 31.65625 360.5625 C 32 360.929688 32.371094 361.265625 32.765625 361.574219 C 33.164062 361.878906 33.585938 362.152344 34.03125 362.386719 C 35.058594 362.96875 36.042969 363.613281 36.984375 364.324219 C 37.925781 365.035156 38.816406 365.808594 39.652344 366.640625 C 40.488281 367.472656 41.269531 368.355469 41.984375 369.292969 C 42.703125 370.230469 43.355469 371.210938 43.941406 372.234375 C 44.527344 373.257812 45.039062 374.320312 45.480469 375.414062 C 45.925781 376.507812 46.289062 377.625 46.582031 378.769531 C 46.875 379.914062 47.085938 381.070312 47.222656 382.242188 C 47.355469 383.414062 47.410156 384.589844 47.386719 385.769531 L 47.386719 526.71875 C 47.386719 527.316406 47.445312 527.90625 47.5625 528.488281 C 47.679688 529.074219 47.851562 529.640625 48.078125 530.191406 C 48.304688 530.742188 48.585938 531.261719 48.917969 531.757812 C 49.246094 532.253906 49.625 532.710938 50.046875 533.132812 C 50.464844 533.554688 50.925781 533.929688 51.421875 534.261719 C 51.914062 534.589844 52.4375 534.871094 52.988281 535.097656 C 53.539062 535.328125 54.105469 535.5 54.691406 535.613281 C 55.277344 535.730469 55.867188 535.789062 56.460938 535.789062 L 165.359375 535.789062 Z M 165.359375 553.929688 " fill-opacity="1" fill-rule="nonzero"/><path fill="#000000" d="M 201.65625 345.320312 C 201.058594 345.320312 200.46875 345.261719 199.886719 345.144531 C 199.300781 345.027344 198.734375 344.855469 198.183594 344.628906 C 197.632812 344.398438 197.109375 344.121094 196.613281 343.789062 C 196.121094 343.460938 195.660156 343.082031 195.238281 342.660156 C 194.816406 342.242188 194.441406 341.78125 194.109375 341.289062 C 193.78125 340.792969 193.5 340.269531 193.273438 339.71875 C 193.042969 339.167969 192.871094 338.601562 192.757812 338.019531 C 192.640625 337.433594 192.582031 336.84375 192.582031 336.25 C 192.582031 335.652344 192.640625 335.0625 192.757812 334.480469 C 192.871094 333.894531 193.042969 333.328125 193.273438 332.777344 C 193.5 332.226562 193.78125 331.703125 194.109375 331.210938 C 194.441406 330.714844 194.816406 330.257812 195.238281 329.835938 C 195.660156 329.414062 196.121094 329.039062 196.613281 328.707031 C 197.109375 328.375 197.632812 328.097656 198.183594 327.867188 C 198.734375 327.640625 199.300781 327.46875 199.886719 327.351562 C 200.46875 327.238281 201.058594 327.179688 201.65625 327.179688 C 202.253906 327.179688 202.84375 327.121094 203.425781 327.003906 C 204.011719 326.886719 204.578125 326.714844 205.128906 326.488281 C 205.679688 326.261719 206.203125 325.980469 206.699219 325.648438 C 207.191406 325.320312 207.652344 324.941406 208.074219 324.523438 C 208.496094 324.101562 208.871094 323.644531 209.203125 323.148438 C 209.53125 322.652344 209.8125 322.128906 210.039062 321.578125 C 210.269531 321.027344 210.441406 320.460938 210.554688 319.878906 C 210.671875 319.292969 210.730469 318.703125 210.730469 318.109375 C 210.730469 317.511719 210.671875 316.921875 210.554688 316.339844 C 210.441406 315.753906 210.269531 315.1875 210.039062 314.636719 C 209.8125 314.085938 209.53125 313.566406 209.203125 313.070312 C 208.871094 312.574219 208.496094 312.117188 208.074219 311.695312 C 207.652344 311.273438 207.191406 310.898438 206.699219 310.566406 C 206.203125 310.234375 205.679688 309.957031 205.128906 309.730469 C 204.578125 309.5 204.011719 309.328125 203.425781 309.210938 C 202.84375 309.097656 202.253906 309.039062 201.65625 309.039062 C 201.058594 309.039062 200.46875 308.980469 199.886719 308.863281 C 199.300781 308.746094 198.734375 308.574219 198.183594 308.347656 C 197.632812 308.121094 197.109375 307.839844 196.613281 307.511719 C 196.121094 307.179688 195.660156 306.804688 195.238281 306.382812 C 194.816406 305.960938 194.441406 305.503906 194.109375 305.007812 C 193.78125 304.511719 193.5 303.988281 193.273438 303.4375 C 193.042969 302.890625 192.871094 302.320312 192.757812 301.738281 C 192.640625 301.152344 192.582031 300.5625 192.582031 299.96875 C 192.582031 299.371094 192.640625 298.78125 192.757812 298.199219 C 192.871094 297.613281 193.042969 297.046875 193.273438 296.496094 C 193.5 295.945312 193.78125 295.425781 194.109375 294.929688 C 194.441406 294.433594 194.816406 293.976562 195.238281 293.554688 C 195.660156 293.132812 196.121094 292.757812 196.613281 292.425781 C 197.109375 292.097656 197.632812 291.816406 198.183594 291.589844 C 198.734375 291.359375 199.300781 291.1875 199.886719 291.074219 C 200.46875 290.957031 201.058594 290.898438 201.65625 290.898438 C 202.160156 290.898438 202.65625 290.859375 203.152344 290.773438 C 203.648438 290.691406 204.132812 290.570312 204.609375 290.40625 C 205.085938 290.242188 205.542969 290.042969 205.984375 289.804688 C 206.425781 289.5625 206.847656 289.289062 207.242188 288.980469 C 207.636719 288.671875 208.007812 288.332031 208.347656 287.964844 C 208.6875 287.59375 208.992188 287.199219 209.269531 286.777344 C 209.542969 286.355469 209.78125 285.917969 209.980469 285.457031 C 210.179688 284.996094 210.34375 284.523438 210.464844 284.035156 C 210.585938 283.546875 210.667969 283.054688 210.707031 282.554688 C 210.75 282.050781 210.746094 281.550781 210.703125 281.050781 C 210.660156 280.550781 210.578125 280.058594 210.453125 279.570312 C 210.328125 279.085938 210.164062 278.613281 209.960938 278.152344 C 209.753906 277.695312 209.515625 277.253906 209.238281 276.835938 C 208.960938 276.417969 208.652344 276.023438 208.3125 275.65625 C 207.96875 275.285156 207.597656 274.949219 207.203125 274.644531 C 206.804688 274.335938 206.382812 274.066406 205.941406 273.828125 C 204.910156 273.25 203.925781 272.605469 202.984375 271.890625 C 202.042969 271.179688 201.152344 270.410156 200.316406 269.578125 C 199.480469 268.746094 198.699219 267.859375 197.984375 266.925781 C 197.265625 265.988281 196.613281 265.007812 196.027344 263.980469 C 195.441406 262.957031 194.929688 261.898438 194.488281 260.804688 C 194.042969 259.710938 193.679688 258.589844 193.386719 257.449219 C 193.09375 256.304688 192.882812 255.144531 192.746094 253.972656 C 192.613281 252.800781 192.558594 251.625 192.582031 250.445312 L 192.582031 218.339844 C 192.582031 203.589844 184.269531 191.128906 174.433594 191.128906 C 154.414062 191.128906 138.132812 170.785156 138.132812 145.777344 L 138.132812 136.707031 C 138.132812 136.113281 138.191406 135.523438 138.308594 134.9375 C 138.425781 134.355469 138.597656 133.785156 138.824219 133.238281 C 139.050781 132.6875 139.332031 132.164062 139.664062 131.667969 C 139.992188 131.171875 140.371094 130.714844 140.792969 130.292969 C 141.214844 129.875 141.671875 129.496094 142.167969 129.167969 C 142.664062 128.835938 143.183594 128.554688 143.734375 128.328125 C 144.285156 128.101562 144.855469 127.929688 145.4375 127.8125 C 146.023438 127.695312 146.613281 127.636719 147.207031 127.636719 C 147.804688 127.636719 148.394531 127.695312 148.980469 127.8125 C 149.5625 127.929688 150.128906 128.101562 150.679688 128.328125 C 151.230469 128.554688 151.753906 128.835938 152.25 129.167969 C 152.746094 129.496094 153.203125 129.875 153.625 130.292969 C 154.046875 130.714844 154.421875 131.171875 154.753906 131.667969 C 155.085938 132.164062 155.363281 132.6875 155.59375 133.238281 C 155.820312 133.785156 155.992188 134.355469 156.109375 134.9375 C 156.226562 135.523438 156.28125 136.113281 156.28125 136.707031 L 156.28125 145.777344 C 156.28125 160.527344 164.59375 172.988281 174.433594 172.988281 C 194.449219 172.988281 210.730469 193.332031 210.730469 218.339844 L 210.730469 250.445312 C 210.695312 251.175781 210.75 251.898438 210.90625 252.613281 C 211.058594 253.324219 211.300781 254.007812 211.636719 254.65625 C 211.96875 255.308594 212.382812 255.902344 212.875 256.445312 C 213.363281 256.984375 213.917969 257.453125 214.53125 257.847656 C 215.4375 258.332031 216.3125 258.867188 217.15625 259.453125 C 218 260.035156 218.808594 260.667969 219.578125 261.34375 C 220.351562 262.019531 221.082031 262.734375 221.773438 263.496094 C 222.464844 264.253906 223.113281 265.046875 223.714844 265.878906 C 224.316406 266.710938 224.867188 267.574219 225.371094 268.46875 C 225.875 269.363281 226.328125 270.28125 226.726562 271.226562 C 227.125 272.171875 227.46875 273.136719 227.761719 274.121094 C 228.050781 275.105469 228.285156 276.101562 228.460938 277.113281 C 228.640625 278.125 228.757812 279.140625 228.820312 280.164062 C 228.882812 281.191406 228.886719 282.214844 228.835938 283.238281 C 228.78125 284.261719 228.667969 285.28125 228.5 286.292969 C 228.332031 287.304688 228.105469 288.304688 227.824219 289.292969 C 227.542969 290.277344 227.207031 291.246094 226.8125 292.195312 C 226.421875 293.144531 225.980469 294.066406 225.484375 294.964844 C 224.988281 295.863281 224.441406 296.730469 223.847656 297.566406 C 223.253906 298.402344 222.613281 299.203125 221.929688 299.96875 C 222.800781 300.941406 223.597656 301.972656 224.320312 303.0625 C 225.042969 304.148438 225.683594 305.28125 226.242188 306.464844 C 226.800781 307.644531 227.273438 308.859375 227.65625 310.105469 C 228.042969 311.355469 228.335938 312.625 228.535156 313.914062 C 228.738281 315.203125 228.84375 316.503906 228.859375 317.808594 C 228.875 319.113281 228.796875 320.414062 228.621094 321.707031 C 228.449219 323.003906 228.183594 324.277344 227.828125 325.535156 C 227.472656 326.792969 227.027344 328.015625 226.492188 329.207031 C 225.960938 330.402344 225.34375 331.546875 224.644531 332.652344 C 223.949219 333.757812 223.171875 334.804688 222.324219 335.796875 C 221.476562 336.789062 220.558594 337.714844 219.574219 338.578125 C 218.59375 339.4375 217.554688 340.222656 216.457031 340.933594 C 215.363281 341.644531 214.21875 342.273438 213.035156 342.820312 C 211.847656 343.367188 210.628906 343.824219 209.375 344.195312 C 208.121094 344.566406 206.847656 344.847656 205.554688 345.035156 C 204.261719 345.222656 202.960938 345.316406 201.65625 345.320312 Z M 201.65625 345.320312 " fill-opacity="1" fill-rule="nonzero"/><path fill="#000000" d="M 38.3125 290.898438 L 201.65625 290.898438 L 201.65625 309.039062 L 38.3125 309.039062 Z M 38.3125 290.898438 " fill-opacity="1" fill-rule="nonzero"/><path fill="#000000" d="M 38.3125 327.179688 L 201.65625 327.179688 L 201.65625 345.320312 L 38.3125 345.320312 Z M 38.3125 327.179688 " fill-opacity="1" fill-rule="nonzero"/><path fill="#000000" d="M 174.433594 272.757812 L 65.535156 272.757812 C 64.941406 272.757812 64.351562 272.699219 63.765625 272.585938 C 63.183594 272.46875 62.613281 272.296875 62.0625 272.066406 C 61.511719 271.839844 60.992188 271.558594 60.496094 271.230469 C 60 270.898438 59.542969 270.523438 59.121094 270.101562 C 58.699219 269.679688 58.320312 269.222656 57.992188 268.726562 C 57.660156 268.230469 57.378906 267.710938 57.152344 267.160156 C 56.925781 266.609375 56.753906 266.042969 56.636719 265.457031 C 56.519531 264.875 56.460938 264.285156 56.460938 263.6875 C 56.460938 263.09375 56.519531 262.503906 56.636719 261.917969 C 56.753906 261.335938 56.925781 260.765625 57.152344 260.21875 C 57.378906 259.667969 57.660156 259.144531 57.992188 258.648438 C 58.320312 258.152344 58.699219 257.695312 59.121094 257.273438 C 59.542969 256.855469 60 256.476562 60.496094 256.148438 C 60.992188 255.816406 61.511719 255.535156 62.0625 255.308594 C 62.613281 255.082031 63.183594 254.910156 63.765625 254.792969 C 64.351562 254.675781 64.941406 254.617188 65.535156 254.617188 L 174.433594 254.617188 C 175.027344 254.617188 175.617188 254.675781 176.203125 254.792969 C 176.785156 254.910156 177.355469 255.082031 177.90625 255.308594 C 178.457031 255.535156 178.976562 255.816406 179.472656 256.148438 C 179.96875 256.476562 180.425781 256.855469 180.847656 257.273438 C 181.269531 257.695312 181.648438 258.152344 181.976562 258.648438 C 182.308594 259.144531 182.589844 259.667969 182.816406 260.21875 C 183.042969 260.765625 183.214844 261.335938 183.332031 261.917969 C 183.449219 262.503906 183.507812 263.09375 183.507812 263.6875 C 183.507812 264.285156 183.449219 264.875 183.332031 265.457031 C 183.214844 266.042969 183.042969 266.609375 182.816406 267.160156 C 182.589844 267.710938 182.308594 268.230469 181.976562 268.726562 C 181.648438 269.222656 181.269531 269.679688 180.847656 270.101562 C 180.425781 270.523438 179.96875 270.898438 179.472656 271.230469 C 178.976562 271.558594 178.457031 271.839844 177.90625 272.066406 C 177.355469 272.296875 176.785156 272.46875 176.203125 272.585938 C 175.617188 272.699219 175.027344 272.757812 174.433594 272.757812 Z M 174.433594 272.757812 " fill-opacity="1" fill-rule="nonzero"/><path fill="#000000" d="M 138.132812 381.597656 L 65.535156 381.597656 C 64.941406 381.597656 64.351562 381.539062 63.765625 381.425781 C 63.183594 381.308594 62.613281 381.136719 62.0625 380.910156 C 61.511719 380.679688 60.992188 380.402344 60.496094 380.070312 C 60 379.738281 59.542969 379.363281 59.121094 378.941406 C 58.699219 378.519531 58.320312 378.0625 57.992188 377.566406 C 57.660156 377.074219 57.378906 376.550781 57.152344 376 C 56.925781 375.449219 56.753906 374.882812 56.636719 374.296875 C 56.519531 373.714844 56.460938 373.125 56.460938 372.527344 C 56.460938 371.933594 56.519531 371.34375 56.636719 370.757812 C 56.753906 370.175781 56.925781 369.609375 57.152344 369.058594 C 57.378906 368.507812 57.660156 367.984375 57.992188 367.488281 C 58.320312 366.996094 58.699219 366.535156 59.121094 366.113281 C 59.542969 365.695312 60 365.316406 60.496094 364.988281 C 60.992188 364.65625 61.511719 364.375 62.0625 364.148438 C 62.613281 363.921875 63.183594 363.75 63.765625 363.632812 C 64.351562 363.515625 64.941406 363.457031 65.535156 363.457031 L 138.132812 363.457031 C 138.730469 363.457031 139.320312 363.515625 139.902344 363.632812 C 140.488281 363.75 141.054688 363.921875 141.605469 364.148438 C 142.15625 364.375 142.679688 364.65625 143.175781 364.988281 C 143.671875 365.316406 144.128906 365.695312 144.550781 366.113281 C 144.972656 366.535156 145.347656 366.996094 145.679688 367.488281 C 146.011719 367.984375 146.289062 368.507812 146.515625 369.058594 C 146.746094 369.609375 146.917969 370.175781 147.035156 370.757812 C 147.148438 371.34375 147.207031 371.933594 147.207031 372.527344 C 147.207031 373.125 147.148438 373.714844 147.035156 374.296875 C 146.917969 374.882812 146.746094 375.449219 146.515625 376 C 146.289062 376.550781 146.011719 377.074219 145.679688 377.566406 C 145.347656 378.0625 144.972656 378.519531 144.550781 378.941406 C 144.128906 379.363281 143.671875 379.738281 143.175781 380.070312 C 142.679688 380.402344 142.15625 380.679688 141.605469 380.910156 C 141.054688 381.136719 140.488281 381.308594 139.902344 381.425781 C 139.320312 381.539062 138.730469 381.597656 138.132812 381.597656 Z M 138.132812 381.597656 " fill-opacity="1" fill-rule="nonzero"/><path fill="#000000" d="M 410.375 535.789062 L 355.925781 535.789062 L 355.925781 517.648438 L 401.296875 517.648438 L 401.296875 191.128906 L 192.582031 191.128906 L 192.582031 172.988281 L 410.375 172.988281 C 410.96875 172.988281 411.558594 173.046875 412.144531 173.164062 C 412.726562 173.277344 413.296875 173.449219 413.847656 173.679688 C 414.394531 173.90625 414.917969 174.1875 415.414062 174.515625 C 415.910156 174.847656 416.367188 175.222656 416.789062 175.644531 C 417.210938 176.066406 417.585938 176.523438 417.917969 177.019531 C 418.25 177.515625 418.527344 178.035156 418.757812 178.585938 C 418.984375 179.136719 419.15625 179.703125 419.273438 180.289062 C 419.390625 180.871094 419.449219 181.460938 419.449219 182.058594 L 419.449219 526.71875 C 419.449219 527.316406 419.390625 527.90625 419.273438 528.488281 C 419.15625 529.074219 418.984375 529.640625 418.757812 530.191406 C 418.527344 530.742188 418.25 531.261719 417.917969 531.757812 C 417.585938 532.253906 417.210938 532.710938 416.789062 533.132812 C 416.367188 533.554688 415.910156 533.929688 415.414062 534.261719 C 414.917969 534.589844 414.394531 534.871094 413.847656 535.097656 C 413.296875 535.328125 412.726562 535.5 412.144531 535.613281 C 411.558594 535.730469 410.96875 535.789062 410.375 535.789062 Z M 410.375 535.789062 " fill-opacity="1" fill-rule="nonzero"/><path fill="#000000" d="M 482.96875 535.789062 L 410.375 535.789062 C 409.777344 535.789062 409.1875 535.730469 408.601562 535.613281 C 408.019531 535.5 407.449219 535.328125 406.902344 535.097656 C 406.351562 534.871094 405.828125 534.589844 405.332031 534.261719 C 404.835938 533.929688 404.378906 533.554688 403.957031 533.132812 C 403.535156 532.710938 403.160156 532.253906 402.828125 531.757812 C 402.496094 531.261719 402.21875 530.742188 401.988281 530.191406 C 401.761719 529.640625 401.589844 529.074219 401.472656 528.488281 C 401.355469 527.90625 401.296875 527.316406 401.296875 526.71875 C 401.296875 526.125 401.355469 525.535156 401.472656 524.949219 C 401.589844 524.367188 401.761719 523.796875 401.988281 523.25 C 402.21875 522.699219 402.496094 522.175781 402.828125 521.679688 C 403.160156 521.183594 403.535156 520.726562 403.957031 520.304688 C 404.378906 519.882812 404.835938 519.507812 405.332031 519.175781 C 405.828125 518.847656 406.351562 518.566406 406.902344 518.339844 C 407.449219 518.113281 408.019531 517.941406 408.601562 517.824219 C 409.1875 517.707031 409.777344 517.648438 410.375 517.648438 L 473.894531 517.648438 L 473.894531 184.199219 L 446.671875 129.777344 L 418.539062 186.113281 C 418.273438 186.644531 417.957031 187.148438 417.59375 187.617188 C 417.226562 188.089844 416.820312 188.519531 416.371094 188.910156 C 415.917969 189.300781 415.4375 189.644531 414.917969 189.9375 C 414.398438 190.234375 413.859375 190.476562 413.292969 190.664062 C 412.726562 190.851562 412.148438 190.984375 411.558594 191.058594 C 410.964844 191.136719 410.375 191.152344 409.777344 191.109375 C 409.183594 191.066406 408.601562 190.96875 408.023438 190.8125 C 407.449219 190.652344 406.894531 190.441406 406.363281 190.175781 C 405.828125 189.910156 405.328125 189.59375 404.855469 189.230469 C 404.382812 188.863281 403.953125 188.457031 403.5625 188.007812 C 403.171875 187.554688 402.828125 187.074219 402.535156 186.554688 C 402.238281 186.039062 401.996094 185.496094 401.808594 184.929688 C 401.617188 184.367188 401.488281 183.789062 401.410156 183.195312 C 401.335938 182.605469 401.320312 182.011719 401.363281 181.417969 C 401.40625 180.824219 401.503906 180.238281 401.660156 179.664062 C 401.820312 179.089844 402.03125 178.535156 402.296875 178.003906 L 438.59375 105.445312 C 438.804688 105.09375 439.035156 104.757812 439.285156 104.4375 C 439.539062 104.117188 439.808594 103.816406 440.101562 103.53125 C 440.394531 103.246094 440.703125 102.980469 441.027344 102.734375 C 441.351562 102.488281 441.691406 102.265625 442.046875 102.066406 C 442.402344 101.863281 442.765625 101.6875 443.144531 101.53125 C 443.523438 101.378906 443.90625 101.25 444.300781 101.144531 C 444.695312 101.042969 445.09375 100.964844 445.5 100.910156 C 445.902344 100.859375 446.308594 100.832031 446.71875 100.832031 C 447.125 100.832031 447.53125 100.859375 447.933594 100.910156 C 448.339844 100.964844 448.738281 101.042969 449.132812 101.144531 C 449.527344 101.25 449.914062 101.378906 450.289062 101.53125 C 450.667969 101.6875 451.03125 101.863281 451.386719 102.066406 C 451.742188 102.265625 452.082031 102.488281 452.40625 102.734375 C 452.734375 102.980469 453.042969 103.246094 453.332031 103.53125 C 453.625 103.816406 453.894531 104.117188 454.148438 104.4375 C 454.398438 104.757812 454.628906 105.09375 454.839844 105.445312 L 491.136719 178.003906 C 491.757812 179.285156 492.0625 180.636719 492.046875 182.058594 L 492.046875 526.71875 C 492.046875 527.316406 491.988281 527.90625 491.871094 528.488281 C 491.753906 529.074219 491.582031 529.640625 491.355469 530.191406 C 491.125 530.742188 490.847656 531.261719 490.515625 531.757812 C 490.183594 532.253906 489.808594 532.710938 489.386719 533.132812 C 488.964844 533.554688 488.507812 533.929688 488.011719 534.261719 C 487.515625 534.589844 486.992188 534.871094 486.441406 535.097656 C 485.890625 535.328125 485.324219 535.5 484.742188 535.613281 C 484.15625 535.730469 483.566406 535.789062 482.96875 535.789062 Z M 482.96875 535.789062 " fill-opacity="1" fill-rule="nonzero"/><path fill="#000000" d="M 192.582031 191.128906 C 192.195312 191.128906 191.8125 191.101562 191.429688 191.054688 C 191.050781 191.003906 190.671875 190.933594 190.300781 190.835938 C 189.925781 190.738281 189.5625 190.617188 189.203125 190.476562 C 188.847656 190.332031 188.5 190.164062 188.164062 189.976562 C 187.828125 189.789062 187.503906 189.582031 187.195312 189.355469 C 186.886719 189.125 186.59375 188.878906 186.3125 188.613281 C 186.035156 188.347656 185.777344 188.0625 185.535156 187.765625 C 185.289062 187.464844 185.070312 187.152344 184.867188 186.824219 C 184.664062 186.496094 184.484375 186.160156 184.324219 185.808594 C 184.164062 185.457031 184.027344 185.097656 183.914062 184.730469 C 183.800781 184.363281 183.710938 183.992188 183.644531 183.609375 C 183.578125 183.230469 183.539062 182.851562 183.519531 182.464844 C 183.503906 182.082031 183.511719 181.699219 183.542969 181.3125 C 183.574219 180.929688 183.628906 180.550781 183.710938 180.175781 C 183.789062 179.796875 183.894531 179.429688 184.019531 179.066406 C 184.148438 178.703125 184.296875 178.347656 184.46875 178.003906 L 220.765625 105.445312 C 221.035156 104.910156 221.347656 104.410156 221.714844 103.9375 C 222.082031 103.464844 222.488281 103.035156 222.9375 102.644531 C 223.386719 102.253906 223.871094 101.910156 224.390625 101.617188 C 224.90625 101.320312 225.449219 101.078125 226.015625 100.890625 C 226.578125 100.703125 227.160156 100.570312 227.75 100.496094 C 228.339844 100.421875 228.933594 100.40625 229.527344 100.445312 C 230.125 100.488281 230.707031 100.589844 231.28125 100.746094 C 231.859375 100.902344 232.414062 101.113281 232.945312 101.378906 C 233.480469 101.644531 233.980469 101.960938 234.453125 102.328125 C 234.921875 102.691406 235.355469 103.097656 235.746094 103.550781 C 236.136719 104 236.480469 104.484375 236.773438 105 C 237.070312 105.519531 237.3125 106.058594 237.5 106.625 C 237.6875 107.191406 237.820312 107.769531 237.894531 108.359375 C 237.972656 108.949219 237.988281 109.542969 237.945312 110.136719 C 237.902344 110.730469 237.804688 111.316406 237.644531 111.890625 C 237.488281 112.464844 237.277344 113.019531 237.011719 113.550781 L 200.710938 186.113281 C 200.335938 186.867188 199.863281 187.554688 199.292969 188.179688 C 198.722656 188.800781 198.078125 189.332031 197.359375 189.777344 C 196.644531 190.21875 195.878906 190.554688 195.066406 190.785156 C 194.253906 191.015625 193.425781 191.128906 192.582031 191.128906 Z M 192.582031 191.128906 " fill-opacity="1" fill-rule="nonzero"/><path fill="#000000" d="M 446.671875 118.566406 L 228.878906 118.566406 C 228.285156 118.566406 227.695312 118.507812 227.109375 118.394531 C 226.527344 118.277344 225.957031 118.105469 225.40625 117.878906 C 224.855469 117.648438 224.335938 117.371094 223.839844 117.039062 C 223.34375 116.707031 222.882812 116.332031 222.464844 115.910156 C 222.042969 115.488281 221.664062 115.03125 221.335938 114.535156 C 221.003906 114.042969 220.722656 113.519531 220.496094 112.96875 C 220.269531 112.417969 220.097656 111.851562 219.980469 111.265625 C 219.863281 110.683594 219.804688 110.09375 219.804688 109.496094 L 219.804688 55.078125 C 219.804688 54.1875 219.847656 53.296875 219.9375 52.410156 C 220.023438 51.523438 220.15625 50.644531 220.328125 49.769531 C 220.503906 48.894531 220.71875 48.03125 220.976562 47.179688 C 221.238281 46.324219 221.535156 45.488281 221.878906 44.664062 C 222.21875 43.839844 222.601562 43.035156 223.019531 42.25 C 223.441406 41.464844 223.898438 40.703125 224.394531 39.960938 C 224.890625 39.21875 225.417969 38.503906 225.984375 37.816406 C 226.550781 37.125 227.148438 36.46875 227.777344 35.835938 C 228.410156 35.207031 229.070312 34.609375 229.757812 34.042969 C 230.449219 33.476562 231.164062 32.949219 231.90625 32.453125 C 232.644531 31.957031 233.410156 31.5 234.195312 31.082031 C 234.984375 30.660156 235.789062 30.28125 236.613281 29.9375 C 237.433594 29.597656 238.273438 29.296875 239.125 29.039062 C 239.980469 28.78125 240.84375 28.5625 241.71875 28.390625 C 242.59375 28.214844 243.472656 28.085938 244.359375 28 C 245.25 27.910156 246.136719 27.867188 247.03125 27.867188 L 428.523438 27.867188 C 429.414062 27.867188 430.304688 27.910156 431.191406 28 C 432.078125 28.085938 432.960938 28.214844 433.832031 28.390625 C 434.707031 28.5625 435.570312 28.78125 436.425781 29.039062 C 437.277344 29.296875 438.117188 29.597656 438.941406 29.9375 C 439.765625 30.28125 440.570312 30.660156 441.355469 31.082031 C 442.140625 31.5 442.90625 31.957031 443.648438 32.453125 C 444.386719 32.949219 445.105469 33.476562 445.792969 34.042969 C 446.484375 34.609375 447.140625 35.207031 447.773438 35.835938 C 448.402344 36.46875 449 37.125 449.566406 37.816406 C 450.132812 38.503906 450.664062 39.21875 451.160156 39.960938 C 451.652344 40.703125 452.113281 41.464844 452.53125 42.25 C 452.953125 43.035156 453.332031 43.839844 453.675781 44.664062 C 454.015625 45.488281 454.316406 46.324219 454.574219 47.179688 C 454.832031 48.03125 455.050781 48.894531 455.222656 49.769531 C 455.398438 50.644531 455.527344 51.523438 455.617188 52.410156 C 455.703125 53.296875 455.746094 54.1875 455.746094 55.078125 L 455.746094 109.496094 C 455.746094 110.09375 455.6875 110.683594 455.570312 111.265625 C 455.457031 111.851562 455.285156 112.417969 455.054688 112.96875 C 454.828125 113.519531 454.546875 114.042969 454.21875 114.535156 C 453.886719 115.03125 453.511719 115.488281 453.089844 115.910156 C 452.667969 116.332031 452.207031 116.707031 451.714844 117.039062 C 451.21875 117.371094 450.695312 117.648438 450.144531 117.878906 C 449.59375 118.105469 449.027344 118.277344 448.441406 118.394531 C 447.859375 118.507812 447.269531 118.566406 446.671875 118.566406 Z M 237.953125 100.425781 L 437.597656 100.425781 L 437.597656 55.078125 C 437.597656 54.480469 437.539062 53.890625 437.421875 53.308594 C 437.304688 52.722656 437.132812 52.15625 436.90625 51.605469 C 436.679688 51.054688 436.398438 50.535156 436.066406 50.039062 C 435.738281 49.542969 435.359375 49.085938 434.9375 48.664062 C 434.519531 48.242188 434.058594 47.867188 433.5625 47.535156 C 433.070312 47.207031 432.546875 46.925781 431.996094 46.699219 C 431.445312 46.46875 430.878906 46.296875 430.292969 46.183594 C 429.707031 46.066406 429.117188 46.007812 428.523438 46.007812 L 247.03125 46.007812 C 246.433594 46.007812 245.84375 46.066406 245.257812 46.183594 C 244.675781 46.296875 244.105469 46.46875 243.558594 46.699219 C 243.007812 46.925781 242.484375 47.207031 241.988281 47.535156 C 241.492188 47.867188 241.035156 48.242188 240.613281 48.664062 C 240.191406 49.085938 239.816406 49.542969 239.484375 50.039062 C 239.152344 50.535156 238.875 51.054688 238.644531 51.605469 C 238.417969 52.15625 238.246094 52.722656 238.128906 53.308594 C 238.011719 53.890625 237.953125 54.480469 237.953125 55.078125 Z M 237.953125 100.425781 " fill-opacity="1" fill-rule="nonzero"/><g clip-path="url(#f0bc36306f)"><path fill="#000000" d="M 564.640625 517.648438 L 482.96875 517.648438 C 482.375 517.648438 481.785156 517.589844 481.199219 517.476562 C 480.617188 517.359375 480.046875 517.1875 479.496094 516.957031 C 478.945312 516.730469 478.425781 516.453125 477.929688 516.121094 C 477.433594 515.789062 476.976562 515.414062 476.554688 514.992188 C 476.132812 514.570312 475.757812 514.113281 475.425781 513.617188 C 475.09375 513.121094 474.816406 512.601562 474.585938 512.050781 C 474.359375 511.5 474.1875 510.933594 474.070312 510.347656 C 473.953125 509.765625 473.894531 509.175781 473.894531 508.578125 C 473.894531 507.984375 473.953125 507.394531 474.070312 506.808594 C 474.1875 506.226562 474.359375 505.660156 474.585938 505.109375 C 474.816406 504.558594 475.09375 504.035156 475.425781 503.539062 C 475.757812 503.042969 476.132812 502.585938 476.554688 502.164062 C 476.976562 501.746094 477.433594 501.367188 477.929688 501.039062 C 478.425781 500.707031 478.945312 500.425781 479.496094 500.199219 C 480.046875 499.972656 480.617188 499.800781 481.199219 499.683594 C 481.785156 499.566406 482.375 499.507812 482.96875 499.507812 L 564.640625 499.507812 C 565.238281 499.507812 565.828125 499.449219 566.414062 499.335938 C 566.996094 499.21875 567.5625 499.046875 568.113281 498.820312 C 568.664062 498.589844 569.1875 498.3125 569.683594 497.980469 C 570.179688 497.648438 570.636719 497.273438 571.058594 496.851562 C 571.480469 496.429688 571.855469 495.972656 572.1875 495.476562 C 572.519531 494.984375 572.796875 494.460938 573.027344 493.910156 C 573.253906 493.359375 573.425781 492.792969 573.542969 492.207031 C 573.660156 491.625 573.71875 491.035156 573.71875 490.4375 L 573.71875 390.667969 C 573.707031 389.769531 573.652344 388.871094 573.554688 387.976562 C 573.457031 387.082031 573.316406 386.191406 573.132812 385.3125 C 572.949219 384.429688 572.71875 383.558594 572.449219 382.703125 C 572.179688 381.84375 571.867188 381 571.511719 380.171875 C 571.160156 379.34375 570.765625 378.535156 570.335938 377.746094 C 569.902344 376.953125 569.429688 376.1875 568.921875 375.445312 C 568.414062 374.703125 567.871094 373.984375 567.292969 373.292969 C 566.714844 372.605469 566.101562 371.945312 565.460938 371.3125 C 564.816406 370.683594 564.144531 370.085938 563.441406 369.523438 C 562.738281 368.957031 562.011719 368.429688 561.257812 367.9375 C 560.503906 367.445312 559.726562 366.992188 558.929688 366.574219 C 558.128906 366.15625 557.3125 365.78125 556.476562 365.445312 C 555.640625 365.109375 554.789062 364.816406 553.925781 364.5625 C 553.0625 364.308594 552.1875 364.101562 551.300781 363.933594 C 550.414062 363.765625 549.523438 363.644531 548.628906 363.5625 C 547.730469 363.484375 546.832031 363.449219 545.929688 363.457031 C 544.753906 363.433594 543.582031 363.355469 542.414062 363.21875 C 541.246094 363.082031 540.089844 362.890625 538.941406 362.640625 C 537.789062 362.390625 536.65625 362.089844 535.535156 361.730469 C 534.417969 361.371094 533.316406 360.960938 532.238281 360.496094 C 531.15625 360.03125 530.101562 359.515625 529.070312 358.949219 C 528.042969 358.382812 527.042969 357.765625 526.070312 357.101562 C 525.101562 356.4375 524.164062 355.730469 523.261719 354.976562 C 522.359375 354.222656 521.496094 353.425781 520.671875 352.589844 C 519.847656 351.753906 519.066406 350.878906 518.324219 349.964844 C 517.585938 349.050781 516.890625 348.105469 516.242188 347.125 C 515.59375 346.144531 514.992188 345.132812 514.441406 344.097656 C 513.890625 343.058594 513.394531 341.996094 512.945312 340.910156 C 512.496094 339.824219 512.101562 338.71875 511.761719 337.59375 C 511.421875 336.46875 511.132812 335.328125 510.902344 334.175781 C 510.671875 333.023438 510.5 331.863281 510.378906 330.695312 C 510.261719 329.527344 510.199219 328.355469 510.195312 327.179688 L 510.195312 309.039062 C 510.195312 308.441406 510.253906 307.851562 510.367188 307.269531 C 510.484375 306.683594 510.65625 306.117188 510.886719 305.566406 C 511.113281 305.015625 511.390625 304.496094 511.722656 304 C 512.054688 303.503906 512.429688 303.046875 512.851562 302.625 C 513.273438 302.203125 513.730469 301.828125 514.226562 301.496094 C 514.722656 301.167969 515.246094 300.886719 515.796875 300.660156 C 516.347656 300.429688 516.914062 300.257812 517.5 300.144531 C 518.082031 300.027344 518.671875 299.96875 519.269531 299.96875 C 519.863281 299.96875 520.453125 300.027344 521.039062 300.144531 C 521.625 300.257812 522.191406 300.429688 522.742188 300.660156 C 523.292969 300.886719 523.816406 301.167969 524.3125 301.496094 C 524.804688 301.828125 525.265625 302.203125 525.6875 302.625 C 526.105469 303.046875 526.484375 303.503906 526.8125 304 C 527.144531 304.496094 527.425781 305.015625 527.652344 305.566406 C 527.878906 306.117188 528.054688 306.683594 528.167969 307.269531 C 528.285156 307.851562 528.34375 308.441406 528.34375 309.039062 L 528.34375 327.179688 C 528.347656 327.765625 528.378906 328.351562 528.4375 328.9375 C 528.496094 329.519531 528.582031 330.101562 528.699219 330.679688 C 528.8125 331.253906 528.957031 331.824219 529.128906 332.386719 C 529.296875 332.949219 529.496094 333.5 529.71875 334.042969 C 529.941406 334.585938 530.191406 335.117188 530.46875 335.636719 C 530.742188 336.15625 531.042969 336.660156 531.367188 337.152344 C 531.691406 337.640625 532.039062 338.113281 532.410156 338.570312 C 532.777344 339.027344 533.171875 339.464844 533.582031 339.882812 C 533.996094 340.304688 534.425781 340.699219 534.878906 341.078125 C 535.328125 341.453125 535.796875 341.808594 536.28125 342.140625 C 536.765625 342.472656 537.269531 342.78125 537.78125 343.0625 C 538.296875 343.347656 538.824219 343.605469 539.363281 343.835938 C 539.90625 344.070312 540.453125 344.273438 541.015625 344.453125 C 541.574219 344.632812 542.140625 344.785156 542.714844 344.910156 C 543.292969 345.035156 543.871094 345.128906 544.453125 345.199219 C 545.039062 345.265625 545.625 345.308594 546.210938 345.320312 C 547.703125 345.3125 549.191406 345.382812 550.671875 345.523438 C 552.15625 345.664062 553.632812 345.878906 555.09375 346.164062 C 556.558594 346.449219 558.003906 346.808594 559.429688 347.234375 C 560.859375 347.664062 562.261719 348.160156 563.640625 348.726562 C 565.019531 349.292969 566.367188 349.925781 567.683594 350.621094 C 569 351.320312 570.28125 352.082031 571.523438 352.90625 C 572.765625 353.730469 573.964844 354.613281 575.117188 355.554688 C 576.273438 356.496094 577.378906 357.492188 578.4375 358.542969 C 579.496094 359.59375 580.496094 360.691406 581.445312 361.839844 C 582.394531 362.988281 583.285156 364.183594 584.117188 365.417969 C 584.949219 366.652344 585.71875 367.929688 586.425781 369.238281 C 587.132812 370.550781 587.773438 371.894531 588.347656 373.269531 C 588.921875 374.644531 589.429688 376.042969 589.867188 377.46875 C 590.304688 378.894531 590.667969 380.335938 590.964844 381.796875 C 591.261719 383.257812 591.484375 384.726562 591.632812 386.210938 C 591.785156 387.691406 591.863281 389.179688 591.867188 390.667969 L 591.867188 490.4375 C 591.867188 491.332031 591.824219 492.21875 591.734375 493.105469 C 591.648438 493.992188 591.515625 494.875 591.34375 495.746094 C 591.167969 496.621094 590.953125 497.484375 590.695312 498.335938 C 590.433594 499.191406 590.136719 500.027344 589.792969 500.851562 C 589.453125 501.675781 589.070312 502.480469 588.652344 503.265625 C 588.230469 504.050781 587.773438 504.816406 587.277344 505.554688 C 586.78125 506.296875 586.253906 507.011719 585.6875 507.699219 C 585.121094 508.390625 584.523438 509.050781 583.890625 509.679688 C 583.261719 510.308594 582.601562 510.90625 581.914062 511.472656 C 581.222656 512.039062 580.507812 512.566406 579.765625 513.0625 C 579.027344 513.558594 578.261719 514.015625 577.476562 514.4375 C 576.6875 514.855469 575.882812 515.238281 575.058594 515.578125 C 574.238281 515.917969 573.398438 516.21875 572.546875 516.476562 C 571.691406 516.734375 570.828125 516.953125 569.953125 517.125 C 569.078125 517.300781 568.199219 517.429688 567.3125 517.519531 C 566.421875 517.605469 565.535156 517.648438 564.640625 517.648438 Z M 564.640625 517.648438 " fill-opacity="1" fill-rule="nonzero"/></g><path fill="#000000" d="M 537.417969 318.109375 L 482.96875 318.109375 C 482.375 318.109375 481.785156 318.050781 481.199219 317.933594 C 480.617188 317.816406 480.046875 317.644531 479.496094 317.417969 C 478.945312 317.191406 478.425781 316.910156 477.929688 316.578125 C 477.433594 316.25 476.976562 315.871094 476.554688 315.453125 C 476.132812 315.03125 475.757812 314.574219 475.425781 314.078125 C 475.09375 313.582031 474.816406 313.058594 474.585938 312.507812 C 474.359375 311.960938 474.1875 311.390625 474.070312 310.808594 C 473.953125 310.222656 473.894531 309.632812 473.894531 309.039062 L 473.894531 272.757812 C 473.894531 272.164062 473.953125 271.574219 474.070312 270.988281 C 474.1875 270.40625 474.359375 269.835938 474.585938 269.289062 C 474.816406 268.738281 475.09375 268.214844 475.425781 267.71875 C 475.757812 267.222656 476.132812 266.765625 476.554688 266.34375 C 476.976562 265.921875 477.433594 265.546875 477.929688 265.21875 C 478.425781 264.886719 478.945312 264.605469 479.496094 264.378906 C 480.046875 264.152344 480.617188 263.980469 481.199219 263.863281 C 481.785156 263.746094 482.375 263.6875 482.96875 263.6875 L 519.269531 263.6875 C 520.160156 263.6875 521.050781 263.730469 521.9375 263.820312 C 522.824219 263.90625 523.707031 264.039062 524.578125 264.210938 C 525.453125 264.386719 526.320312 264.601562 527.171875 264.859375 C 528.023438 265.117188 528.863281 265.417969 529.6875 265.757812 C 530.511719 266.101562 531.316406 266.480469 532.101562 266.902344 C 532.886719 267.320312 533.652344 267.777344 534.394531 268.273438 C 535.136719 268.769531 535.851562 269.300781 536.539062 269.863281 C 537.230469 270.429688 537.890625 271.027344 538.519531 271.65625 C 539.148438 272.289062 539.746094 272.949219 540.3125 273.636719 C 540.878906 274.324219 541.410156 275.039062 541.90625 275.78125 C 542.398438 276.523438 542.859375 277.285156 543.277344 278.070312 C 543.699219 278.859375 544.078125 279.664062 544.421875 280.484375 C 544.761719 281.308594 545.0625 282.148438 545.320312 283 C 545.578125 283.851562 545.796875 284.714844 545.96875 285.589844 C 546.144531 286.464844 546.273438 287.34375 546.363281 288.230469 C 546.449219 289.117188 546.492188 290.007812 546.492188 290.898438 L 546.492188 309.039062 C 546.492188 309.632812 546.433594 310.222656 546.320312 310.808594 C 546.203125 311.390625 546.03125 311.960938 545.800781 312.507812 C 545.574219 313.058594 545.292969 313.582031 544.964844 314.078125 C 544.632812 314.574219 544.257812 315.03125 543.835938 315.453125 C 543.414062 315.871094 542.957031 316.25 542.460938 316.578125 C 541.964844 316.910156 541.441406 317.191406 540.890625 317.417969 C 540.339844 317.644531 539.773438 317.816406 539.1875 317.933594 C 538.605469 318.050781 538.015625 318.109375 537.417969 318.109375 Z M 492.046875 299.96875 L 528.34375 299.96875 L 528.34375 290.898438 C 528.34375 290.304688 528.285156 289.714844 528.167969 289.128906 C 528.054688 288.542969 527.878906 287.976562 527.652344 287.425781 C 527.425781 286.878906 527.144531 286.355469 526.8125 285.859375 C 526.484375 285.363281 526.105469 284.90625 525.6875 284.484375 C 525.265625 284.0625 524.804688 283.6875 524.308594 283.355469 C 523.816406 283.027344 523.292969 282.746094 522.742188 282.519531 C 522.191406 282.289062 521.625 282.117188 521.039062 282.003906 C 520.453125 281.886719 519.863281 281.828125 519.269531 281.828125 L 492.046875 281.828125 Z M 492.046875 299.96875 " fill-opacity="1" fill-rule="nonzero"/><path fill="#000000" d="M 537.417969 481.367188 L 482.96875 481.367188 C 482.375 481.367188 481.785156 481.3125 481.199219 481.195312 C 480.617188 481.078125 480.046875 480.90625 479.496094 480.679688 C 478.945312 480.449219 478.425781 480.171875 477.929688 479.839844 C 477.433594 479.507812 476.976562 479.132812 476.554688 478.710938 C 476.132812 478.292969 475.757812 477.832031 475.425781 477.339844 C 475.09375 476.84375 474.816406 476.320312 474.585938 475.769531 C 474.359375 475.21875 474.1875 474.652344 474.070312 474.070312 C 473.953125 473.484375 473.894531 472.894531 473.894531 472.300781 C 473.894531 471.703125 473.953125 471.113281 474.070312 470.53125 C 474.1875 469.945312 474.359375 469.378906 474.585938 468.828125 C 474.816406 468.277344 475.09375 467.753906 475.425781 467.261719 C 475.757812 466.765625 476.132812 466.304688 476.554688 465.886719 C 476.976562 465.464844 477.433594 465.089844 477.929688 464.757812 C 478.425781 464.425781 478.945312 464.148438 479.496094 463.917969 C 480.046875 463.691406 480.617188 463.519531 481.199219 463.402344 C 481.785156 463.285156 482.375 463.230469 482.96875 463.230469 L 528.34375 463.230469 L 528.34375 399.738281 L 482.96875 399.738281 C 482.375 399.738281 481.785156 399.679688 481.199219 399.5625 C 480.617188 399.449219 480.046875 399.277344 479.496094 399.046875 C 478.945312 398.820312 478.425781 398.542969 477.929688 398.210938 C 477.433594 397.878906 476.976562 397.503906 476.554688 397.082031 C 476.132812 396.660156 475.757812 396.203125 475.425781 395.707031 C 475.09375 395.210938 474.816406 394.691406 474.585938 394.140625 C 474.359375 393.589844 474.1875 393.023438 474.070312 392.4375 C 473.953125 391.855469 473.894531 391.265625 473.894531 390.667969 C 473.894531 390.074219 473.953125 389.484375 474.070312 388.898438 C 474.1875 388.316406 474.359375 387.746094 474.585938 387.199219 C 474.816406 386.648438 475.09375 386.125 475.425781 385.628906 C 475.757812 385.132812 476.132812 384.675781 476.554688 384.253906 C 476.976562 383.835938 477.433594 383.457031 477.929688 383.128906 C 478.425781 382.796875 478.945312 382.515625 479.496094 382.289062 C 480.046875 382.0625 480.617188 381.890625 481.199219 381.773438 C 481.785156 381.65625 482.375 381.597656 482.96875 381.597656 L 537.417969 381.597656 C 538.015625 381.597656 538.605469 381.65625 539.1875 381.773438 C 539.773438 381.890625 540.339844 382.0625 540.890625 382.289062 C 541.441406 382.515625 541.964844 382.796875 542.460938 383.128906 C 542.957031 383.457031 543.414062 383.835938 543.835938 384.253906 C 544.257812 384.675781 544.632812 385.132812 544.964844 385.628906 C 545.292969 386.125 545.574219 386.648438 545.800781 387.199219 C 546.03125 387.746094 546.203125 388.316406 546.320312 388.898438 C 546.433594 389.484375 546.492188 390.074219 546.492188 390.667969 L 546.492188 472.300781 C 546.492188 472.894531 546.433594 473.484375 546.320312 474.070312 C 546.203125 474.652344 546.03125 475.21875 545.800781 475.769531 C 545.574219 476.320312 545.292969 476.84375 544.964844 477.339844 C 544.632812 477.832031 544.257812 478.292969 543.835938 478.710938 C 543.414062 479.132812 542.957031 479.507812 542.460938 479.839844 C 541.964844 480.171875 541.441406 480.449219 540.890625 480.679688 C 540.339844 480.90625 539.773438 481.078125 539.1875 481.195312 C 538.605469 481.3125 538.015625 481.367188 537.417969 481.367188 Z M 537.417969 481.367188 " fill-opacity="1" fill-rule="nonzero"/><path fill="#000000" d="M 374.074219 372.527344 L 355.925781 372.527344 L 355.925781 236.476562 L 228.878906 236.476562 L 228.878906 354.386719 L 210.730469 354.386719 L 210.730469 227.40625 C 210.730469 226.8125 210.789062 226.222656 210.90625 225.636719 C 211.023438 225.054688 211.195312 224.488281 211.421875 223.9375 C 211.648438 223.386719 211.929688 222.863281 212.261719 222.367188 C 212.589844 221.875 212.96875 221.414062 213.390625 220.996094 C 213.808594 220.574219 214.269531 220.199219 214.765625 219.867188 C 215.257812 219.535156 215.78125 219.257812 216.332031 219.027344 C 216.882812 218.800781 217.449219 218.628906 218.035156 218.511719 C 218.621094 218.394531 219.210938 218.339844 219.804688 218.339844 L 365 218.339844 C 365.597656 218.339844 366.1875 218.394531 366.769531 218.511719 C 367.355469 218.628906 367.921875 218.800781 368.472656 219.027344 C 369.023438 219.257812 369.546875 219.535156 370.042969 219.867188 C 370.535156 220.199219 370.996094 220.574219 371.417969 220.996094 C 371.839844 221.414062 372.214844 221.875 372.546875 222.367188 C 372.875 222.863281 373.15625 223.386719 373.382812 223.9375 C 373.613281 224.488281 373.785156 225.054688 373.898438 225.636719 C 374.015625 226.222656 374.074219 226.8125 374.074219 227.40625 Z M 374.074219 372.527344 " fill-opacity="1" fill-rule="nonzero"/></svg>