<svg xmlns="http://www.w3.org/2000/svg" xmlns:xlink="http://www.w3.org/1999/xlink" width="800" zoomAndPan="magnify" viewBox="0 0 600 599.999999" height="800" preserveAspectRatio="xMidYMid meet" version="1.0"><defs><clipPath id="38005b5996"><path d="M 14 13.558594 L 588.808594 13.558594 L 588.808594 587 L 14 587 Z M 14 13.558594 " clip-rule="nonzero"/></clipPath></defs><g clip-path="url(#38005b5996)"><path fill="#000000" d="M 571.597656 474.871094 C 577.332031 462.378906 581.648438 449.414062 584.550781 435.976562 C 587.453125 422.539062 588.875 408.945312 588.808594 395.199219 C 588.808594 392.070312 588.730469 388.941406 588.578125 385.816406 C 588.421875 382.691406 588.191406 379.570312 587.886719 376.457031 C 587.578125 373.339844 587.195312 370.234375 586.738281 367.140625 C 586.277344 364.042969 585.742188 360.960938 585.132812 357.894531 C 584.523438 354.824219 583.835938 351.769531 583.078125 348.734375 C 582.316406 345.699219 581.480469 342.683594 580.574219 339.691406 C 579.664062 336.695312 578.683594 333.726562 577.628906 330.777344 C 576.574219 327.832031 575.449219 324.914062 574.25 322.023438 C 573.054688 319.128906 571.785156 316.269531 570.449219 313.441406 C 569.109375 310.613281 567.703125 307.816406 566.226562 305.058594 C 564.753906 302.296875 563.210938 299.574219 561.601562 296.890625 C 559.992188 294.207031 558.320312 291.5625 556.582031 288.960938 C 554.84375 286.359375 553.039062 283.800781 551.175781 281.289062 C 549.3125 278.773438 547.386719 276.308594 545.402344 273.890625 C 543.417969 271.472656 541.375 269.101562 539.273438 266.78125 C 537.171875 264.464844 535.011719 262.199219 532.800781 259.984375 C 530.585938 257.773438 528.320312 255.617188 526.003906 253.515625 C 523.683594 251.414062 521.316406 249.367188 518.894531 247.382812 C 516.476562 245.398438 514.011719 243.472656 511.496094 241.609375 C 508.984375 239.746094 506.425781 237.945312 503.824219 236.207031 C 501.222656 234.464844 498.578125 232.792969 495.894531 231.183594 C 493.210938 229.574219 490.488281 228.03125 487.726562 226.558594 C 484.96875 225.082031 482.171875 223.675781 479.34375 222.339844 C 476.515625 221 473.65625 219.730469 470.765625 218.535156 C 467.875 217.335938 464.953125 216.210938 462.007812 215.15625 C 459.0625 214.101562 456.089844 213.121094 453.097656 212.214844 C 450.101562 211.304688 447.085938 210.46875 444.050781 209.710938 C 441.015625 208.949219 437.960938 208.265625 434.894531 207.652344 C 431.824219 207.042969 428.742188 206.507812 425.644531 206.046875 C 422.550781 205.589844 419.445312 205.207031 416.332031 204.898438 C 413.214844 204.59375 410.097656 204.363281 406.972656 204.210938 C 403.84375 204.054688 400.71875 203.980469 397.589844 203.980469 C 397.589844 200.851562 397.511719 197.722656 397.359375 194.597656 C 397.203125 191.472656 396.972656 188.351562 396.667969 185.238281 C 396.359375 182.121094 395.976562 179.015625 395.519531 175.921875 C 395.058594 172.824219 394.523438 169.742188 393.914062 166.675781 C 393.304688 163.605469 392.617188 160.550781 391.859375 157.515625 C 391.097656 154.480469 390.261719 151.464844 389.355469 148.472656 C 388.445312 145.476562 387.464844 142.507812 386.410156 139.558594 C 385.355469 136.613281 384.230469 133.695312 383.03125 130.804688 C 381.835938 127.910156 380.566406 125.050781 379.230469 122.222656 C 377.890625 119.394531 376.484375 116.597656 375.007812 113.839844 C 373.535156 111.078125 371.992188 108.355469 370.382812 105.671875 C 368.773438 102.988281 367.101562 100.34375 365.363281 97.742188 C 363.625 95.140625 361.820312 92.582031 359.957031 90.070312 C 358.09375 87.554688 356.167969 85.089844 354.183594 82.671875 C 352.199219 80.253906 350.15625 77.882812 348.054688 75.5625 C 345.953125 73.246094 343.792969 70.980469 341.582031 68.765625 C 339.367188 66.554688 337.101562 64.398438 334.785156 62.296875 C 332.464844 60.195312 330.097656 58.148438 327.675781 56.164062 C 325.257812 54.179688 322.792969 52.253906 320.277344 50.390625 C 317.765625 48.527344 315.207031 46.726562 312.605469 44.988281 C 310.003906 43.246094 307.359375 41.574219 304.675781 39.964844 C 301.992188 38.355469 299.269531 36.8125 296.507812 35.339844 C 293.75 33.863281 290.953125 32.457031 288.125 31.121094 C 285.296875 29.78125 282.4375 28.511719 279.546875 27.316406 C 276.65625 26.117188 273.734375 24.992188 270.789062 23.9375 C 267.84375 22.882812 264.871094 21.902344 261.878906 20.992188 C 258.882812 20.085938 255.867188 19.25 252.832031 18.492188 C 249.796875 17.730469 246.742188 17.046875 243.675781 16.433594 C 240.605469 15.824219 237.523438 15.289062 234.425781 14.828125 C 231.332031 14.371094 228.226562 13.988281 225.113281 13.679688 C 221.996094 13.375 218.878906 13.144531 215.753906 12.992188 C 212.625 12.835938 209.5 12.761719 206.371094 12.761719 C 203.238281 12.761719 200.113281 12.835938 196.988281 12.992188 C 193.859375 13.144531 190.742188 13.375 187.625 13.679688 C 184.511719 13.988281 181.40625 14.371094 178.3125 14.828125 C 175.214844 15.289062 172.132812 15.824219 169.0625 16.433594 C 165.996094 17.046875 162.941406 17.730469 159.90625 18.492188 C 156.871094 19.25 153.855469 20.085938 150.863281 20.992188 C 147.867188 21.902344 144.894531 22.882812 141.949219 23.9375 C 139.003906 24.992188 136.085938 26.117188 133.191406 27.316406 C 130.300781 28.511719 127.441406 29.78125 124.613281 31.121094 C 121.785156 32.457031 118.988281 33.863281 116.230469 35.339844 C 113.46875 36.8125 110.746094 38.355469 108.0625 39.964844 C 105.378906 41.574219 102.734375 43.246094 100.132812 44.988281 C 97.53125 46.726562 94.972656 48.527344 92.460938 50.390625 C 89.945312 52.253906 87.480469 54.179688 85.0625 56.164062 C 82.640625 58.148438 80.273438 60.195312 77.953125 62.296875 C 75.636719 64.398438 73.371094 66.554688 71.15625 68.765625 C 68.945312 70.980469 66.789062 73.246094 64.6875 75.5625 C 62.582031 77.882812 60.539062 80.253906 58.554688 82.671875 C 56.570312 85.089844 54.644531 87.554688 52.78125 90.070312 C 50.917969 92.582031 49.117188 95.140625 47.375 97.742188 C 45.636719 100.34375 43.964844 102.988281 42.355469 105.671875 C 40.746094 108.355469 39.203125 111.078125 37.730469 113.839844 C 36.253906 116.597656 34.847656 119.394531 33.507812 122.222656 C 32.171875 125.050781 30.902344 127.910156 29.707031 130.804688 C 28.507812 133.695312 27.382812 136.613281 26.328125 139.558594 C 25.273438 142.507812 24.292969 145.476562 23.382812 148.472656 C 22.476562 151.464844 21.640625 154.480469 20.882812 157.515625 C 20.121094 160.550781 19.433594 163.605469 18.824219 166.675781 C 18.214844 169.742188 17.679688 172.824219 17.21875 175.921875 C 16.761719 179.015625 16.378906 182.121094 16.070312 185.238281 C 15.765625 188.351562 15.535156 191.472656 15.382812 194.597656 C 15.226562 197.722656 15.152344 200.851562 15.152344 203.980469 C 15.085938 217.726562 16.503906 231.320312 19.40625 244.757812 C 22.308594 258.195312 26.625 271.160156 32.359375 283.652344 L 15.152344 376.394531 C 15.042969 376.972656 14.972656 377.554688 14.929688 378.140625 C 14.886719 378.726562 14.878906 379.3125 14.902344 379.902344 C 14.925781 380.488281 14.980469 381.070312 15.070312 381.652344 C 15.15625 382.234375 15.277344 382.808594 15.429688 383.375 C 15.582031 383.945312 15.761719 384.5 15.976562 385.050781 C 16.191406 385.597656 16.433594 386.132812 16.707031 386.652344 C 16.976562 387.171875 17.277344 387.675781 17.605469 388.164062 C 17.933594 388.652344 18.289062 389.121094 18.667969 389.566406 C 19.046875 390.015625 19.453125 390.441406 19.878906 390.84375 C 20.304688 391.25 20.753906 391.628906 21.222656 391.980469 C 21.691406 392.335938 22.179688 392.664062 22.683594 392.964844 C 23.1875 393.265625 23.710938 393.535156 24.246094 393.777344 C 24.78125 394.019531 25.328125 394.234375 25.886719 394.414062 C 26.445312 394.597656 27.011719 394.75 27.585938 394.867188 C 28.160156 394.988281 28.742188 395.074219 29.328125 395.128906 C 29.910156 395.183594 30.496094 395.207031 31.085938 395.199219 L 33.953125 395.199219 L 126.695312 377.988281 C 139.1875 383.722656 152.15625 388.039062 165.59375 390.945312 C 179.03125 393.847656 192.621094 395.265625 206.371094 395.199219 C 206.371094 398.328125 206.445312 401.453125 206.601562 404.582031 C 206.753906 407.707031 206.984375 410.828125 207.289062 413.941406 C 207.597656 417.054688 207.980469 420.160156 208.4375 423.253906 C 208.898438 426.351562 209.433594 429.433594 210.042969 432.503906 C 210.652344 435.570312 211.339844 438.625 212.101562 441.660156 C 212.859375 444.695312 213.695312 447.710938 214.601562 450.707031 C 215.511719 453.699219 216.492188 456.671875 217.546875 459.617188 C 218.601562 462.5625 219.726562 465.484375 220.925781 468.375 C 222.121094 471.265625 223.390625 474.125 224.726562 476.953125 C 226.066406 479.785156 227.472656 482.578125 228.949219 485.335938 C 230.421875 488.097656 231.964844 490.820312 233.574219 493.503906 C 235.183594 496.1875 236.855469 498.832031 238.59375 501.433594 C 240.335938 504.035156 242.136719 506.59375 244 509.105469 C 245.863281 511.621094 247.789062 514.085938 249.773438 516.507812 C 251.757812 518.925781 253.804688 521.292969 255.90625 523.613281 C 258.007812 525.929688 260.164062 528.195312 262.375 530.410156 C 264.589844 532.621094 266.855469 534.78125 269.171875 536.882812 C 271.492188 538.984375 273.859375 541.027344 276.28125 543.011719 C 278.699219 544.996094 281.164062 546.921875 283.679688 548.785156 C 286.191406 550.652344 288.75 552.453125 291.351562 554.191406 C 293.953125 555.929688 296.597656 557.601562 299.28125 559.210938 C 301.964844 560.820312 304.6875 562.363281 307.449219 563.835938 C 310.207031 565.3125 313.003906 566.71875 315.832031 568.058594 C 318.660156 569.394531 321.519531 570.664062 324.410156 571.859375 C 327.304688 573.058594 330.222656 574.183594 333.167969 575.238281 C 336.113281 576.292969 339.085938 577.273438 342.082031 578.183594 C 345.074219 579.089844 348.089844 579.925781 351.125 580.6875 C 354.160156 581.445312 357.214844 582.132812 360.285156 582.742188 C 363.351562 583.351562 366.433594 583.886719 369.53125 584.347656 C 372.625 584.804688 375.730469 585.1875 378.84375 585.496094 C 381.960938 585.804688 385.078125 586.03125 388.207031 586.1875 C 391.332031 586.339844 394.457031 586.417969 397.589844 586.417969 C 411.335938 586.484375 424.925781 585.066406 438.363281 582.164062 C 451.800781 579.261719 464.769531 574.941406 477.261719 569.207031 L 570.003906 586.417969 L 572.871094 586.417969 C 573.460938 586.425781 574.046875 586.402344 574.632812 586.347656 C 575.214844 586.292969 575.796875 586.207031 576.371094 586.085938 C 576.945312 585.964844 577.515625 585.816406 578.074219 585.632812 C 578.632812 585.453125 579.179688 585.238281 579.714844 584.996094 C 580.25 584.753906 580.769531 584.484375 581.273438 584.183594 C 581.777344 583.882812 582.265625 583.554688 582.734375 583.199219 C 583.203125 582.847656 583.652344 582.46875 584.078125 582.0625 C 584.507812 581.660156 584.910156 581.234375 585.289062 580.785156 C 585.667969 580.339844 586.023438 579.871094 586.351562 579.382812 C 586.679688 578.894531 586.980469 578.390625 587.253906 577.871094 C 587.523438 577.351562 587.765625 576.816406 587.980469 576.269531 C 588.195312 575.71875 588.375 575.164062 588.527344 574.59375 C 588.679688 574.027344 588.800781 573.453125 588.886719 572.871094 C 588.976562 572.292969 589.03125 571.707031 589.054688 571.121094 C 589.078125 570.53125 589.070312 569.945312 589.027344 569.359375 C 588.988281 568.773438 588.914062 568.191406 588.808594 567.613281 Z M 136.574219 347.394531 C 134.359375 346.320312 132.023438 345.789062 129.5625 345.800781 L 126.695312 345.800781 L 50.84375 359.664062 L 64.707031 283.652344 C 64.957031 281.957031 64.929688 280.261719 64.628906 278.570312 C 64.328125 276.882812 63.773438 275.285156 62.957031 273.773438 C 57.65625 262.90625 53.660156 251.582031 50.96875 239.792969 C 48.277344 228.007812 46.960938 216.070312 47.019531 203.980469 C 47.019531 201.371094 47.085938 198.765625 47.210938 196.160156 C 47.339844 193.554688 47.53125 190.957031 47.789062 188.359375 C 48.042969 185.765625 48.363281 183.175781 48.746094 180.597656 C 49.128906 178.019531 49.574219 175.449219 50.082031 172.890625 C 50.589844 170.332031 51.164062 167.789062 51.796875 165.261719 C 52.429688 162.730469 53.125 160.21875 53.882812 157.722656 C 54.640625 155.226562 55.457031 152.75 56.335938 150.296875 C 57.214844 147.839844 58.152344 145.410156 59.148438 143 C 60.148438 140.589844 61.203125 138.207031 62.320312 135.847656 C 63.433594 133.492188 64.605469 131.164062 65.835938 128.863281 C 67.066406 126.5625 68.351562 124.292969 69.691406 122.058594 C 71.03125 119.820312 72.425781 117.617188 73.875 115.449219 C 75.324219 113.28125 76.824219 111.148438 78.378906 109.054688 C 79.933594 106.960938 81.535156 104.90625 83.191406 102.890625 C 84.84375 100.875 86.546875 98.898438 88.300781 96.96875 C 90.050781 95.035156 91.847656 93.144531 93.691406 91.300781 C 95.535156 89.457031 97.425781 87.660156 99.355469 85.910156 C 101.289062 84.15625 103.261719 82.453125 105.28125 80.800781 C 107.296875 79.144531 109.351562 77.542969 111.445312 75.988281 C 113.539062 74.433594 115.671875 72.933594 117.839844 71.484375 C 120.007812 70.035156 122.210938 68.640625 124.449219 67.300781 C 126.683594 65.960938 128.953125 64.675781 131.253906 63.445312 C 133.550781 62.214844 135.882812 61.042969 138.238281 59.929688 C 140.597656 58.8125 142.980469 57.757812 145.390625 56.761719 C 147.796875 55.761719 150.230469 54.824219 152.6875 53.945312 C 155.140625 53.066406 157.617188 52.25 160.113281 51.492188 C 162.609375 50.734375 165.121094 50.039062 167.652344 49.40625 C 170.179688 48.773438 172.722656 48.199219 175.28125 47.691406 C 177.839844 47.183594 180.410156 46.738281 182.988281 46.355469 C 185.566406 45.972656 188.15625 45.652344 190.75 45.398438 C 193.347656 45.140625 195.945312 44.949219 198.550781 44.820312 C 201.15625 44.695312 203.761719 44.628906 206.371094 44.628906 C 208.976562 44.628906 211.582031 44.695312 214.1875 44.820312 C 216.792969 44.949219 219.394531 45.140625 221.988281 45.398438 C 224.582031 45.652344 227.171875 45.972656 229.75 46.355469 C 232.332031 46.738281 234.898438 47.183594 237.457031 47.691406 C 240.015625 48.199219 242.558594 48.773438 245.089844 49.40625 C 247.617188 50.039062 250.128906 50.734375 252.625 51.492188 C 255.121094 52.25 257.597656 53.066406 260.050781 53.945312 C 262.507812 54.824219 264.941406 55.761719 267.351562 56.761719 C 269.757812 57.757812 272.140625 58.8125 274.5 59.929688 C 276.855469 61.042969 279.1875 62.214844 281.484375 63.445312 C 283.785156 64.675781 286.054688 65.960938 288.292969 67.300781 C 290.527344 68.640625 292.730469 70.035156 294.898438 71.484375 C 297.066406 72.933594 299.199219 74.433594 301.292969 75.988281 C 303.386719 77.542969 305.445312 79.144531 307.460938 80.800781 C 309.476562 82.453125 311.449219 84.15625 313.382812 85.910156 C 315.3125 87.660156 317.203125 89.457031 319.046875 91.300781 C 320.890625 93.144531 322.6875 95.035156 324.4375 96.96875 C 326.191406 98.898438 327.894531 100.875 329.546875 102.890625 C 331.203125 104.90625 332.804688 106.960938 334.359375 109.054688 C 335.914062 111.148438 337.414062 113.28125 338.863281 115.449219 C 340.3125 117.617188 341.707031 119.820312 343.046875 122.058594 C 344.386719 124.292969 345.671875 126.5625 346.902344 128.863281 C 348.132812 131.164062 349.304688 133.492188 350.417969 135.847656 C 351.535156 138.207031 352.589844 140.589844 353.589844 143 C 354.585938 145.410156 355.523438 147.839844 356.402344 150.296875 C 357.28125 152.75 358.101562 155.226562 358.855469 157.722656 C 359.613281 160.21875 360.308594 162.730469 360.941406 165.261719 C 361.578125 167.789062 362.148438 170.332031 362.65625 172.890625 C 363.164062 175.449219 363.609375 178.019531 363.992188 180.597656 C 364.375 183.175781 364.695312 185.765625 364.949219 188.359375 C 365.207031 190.957031 365.398438 193.554688 365.527344 196.160156 C 365.65625 198.765625 365.71875 201.371094 365.71875 203.980469 C 365.71875 206.585938 365.65625 209.191406 365.527344 211.796875 C 365.398438 214.402344 365.207031 217.003906 364.949219 219.597656 C 364.695312 222.195312 364.375 224.78125 363.992188 227.359375 C 363.609375 229.941406 363.164062 232.507812 362.65625 235.066406 C 362.148438 237.625 361.578125 240.167969 360.941406 242.699219 C 360.308594 245.226562 359.613281 247.738281 358.855469 250.234375 C 358.101562 252.730469 357.28125 255.207031 356.402344 257.664062 C 355.523438 260.117188 354.585938 262.550781 353.589844 264.960938 C 352.589844 267.367188 351.535156 269.753906 350.417969 272.109375 C 349.304688 274.46875 348.132812 276.796875 346.902344 279.097656 C 345.671875 281.394531 344.386719 283.664062 343.046875 285.902344 C 341.707031 288.136719 340.3125 290.339844 338.863281 292.507812 C 337.414062 294.675781 335.914062 296.808594 334.359375 298.902344 C 332.804688 300.996094 331.203125 303.054688 329.546875 305.070312 C 327.894531 307.085938 326.191406 309.058594 324.4375 310.992188 C 322.6875 312.921875 320.890625 314.8125 319.046875 316.65625 C 317.203125 318.5 315.3125 320.296875 313.382812 322.050781 C 311.449219 323.800781 309.476562 325.503906 307.460938 327.15625 C 305.445312 328.8125 303.386719 330.414062 301.292969 331.96875 C 299.199219 333.523438 297.066406 335.023438 294.898438 336.472656 C 292.730469 337.921875 290.527344 339.316406 288.292969 340.65625 C 286.054688 342 283.785156 343.28125 281.484375 344.511719 C 279.1875 345.742188 276.855469 346.914062 274.5 348.027344 C 272.140625 349.144531 269.757812 350.199219 267.351562 351.199219 C 264.941406 352.195312 262.507812 353.132812 260.050781 354.011719 C 257.597656 354.890625 255.121094 355.710938 252.625 356.464844 C 250.128906 357.222656 247.617188 357.917969 245.089844 358.550781 C 242.558594 359.1875 240.015625 359.757812 237.457031 360.265625 C 234.898438 360.773438 232.332031 361.222656 229.75 361.601562 C 227.171875 361.984375 224.582031 362.304688 221.988281 362.5625 C 219.394531 362.816406 216.792969 363.007812 214.1875 363.136719 C 211.582031 363.265625 208.976562 363.328125 206.371094 363.328125 C 194.28125 363.386719 182.339844 362.070312 170.554688 359.378906 C 158.765625 356.691406 147.441406 352.695312 136.574219 347.394531 Z M 539.25 474.871094 L 553.113281 550.722656 L 477.261719 536.859375 C 475.582031 536.5625 473.898438 536.539062 472.207031 536.78125 C 470.519531 537.027344 468.910156 537.53125 467.382812 538.292969 C 456.53125 543.648438 445.210938 547.699219 433.421875 550.445312 C 421.636719 553.1875 409.691406 554.558594 397.589844 554.546875 C 394.980469 554.546875 392.375 554.484375 389.769531 554.355469 C 387.164062 554.226562 384.566406 554.035156 381.96875 553.78125 C 379.375 553.523438 376.785156 553.203125 374.207031 552.820312 C 371.628906 552.441406 369.058594 551.992188 366.5 551.484375 C 363.941406 550.976562 361.398438 550.40625 358.871094 549.769531 C 356.339844 549.136719 353.828125 548.441406 351.332031 547.683594 C 348.835938 546.929688 346.359375 546.109375 343.90625 545.230469 C 341.449219 544.351562 339.015625 543.414062 336.609375 542.417969 C 334.199219 541.417969 331.816406 540.363281 329.457031 539.246094 C 327.101562 538.132812 324.773438 536.960938 322.472656 535.730469 C 320.171875 534.5 317.902344 533.21875 315.667969 531.875 C 313.429688 530.535156 311.226562 529.140625 309.058594 527.691406 C 306.890625 526.242188 304.757812 524.742188 302.664062 523.1875 C 300.570312 521.632812 298.515625 520.03125 296.5 518.375 C 294.480469 516.722656 292.507812 515.019531 290.574219 513.269531 C 288.644531 511.515625 286.753906 509.71875 284.910156 507.875 C 283.066406 506.03125 281.269531 504.140625 279.519531 502.210938 C 277.765625 500.277344 276.0625 498.304688 274.410156 496.289062 C 272.753906 494.273438 271.152344 492.214844 269.597656 490.121094 C 268.042969 488.027344 266.542969 485.894531 265.09375 483.726562 C 263.644531 481.558594 262.25 479.355469 260.910156 477.121094 C 259.570312 474.882812 258.285156 472.613281 257.054688 470.316406 C 255.824219 468.015625 254.652344 465.6875 253.539062 463.328125 C 252.421875 460.972656 251.367188 458.585938 250.367188 456.179688 C 249.371094 453.769531 248.433594 451.335938 247.554688 448.882812 C 246.675781 446.425781 245.859375 443.949219 245.101562 441.453125 C 244.34375 438.957031 243.648438 436.445312 243.015625 433.917969 C 242.382812 431.386719 241.808594 428.84375 241.300781 426.285156 C 240.792969 423.726562 240.347656 421.160156 239.964844 418.578125 C 239.582031 416 239.261719 413.414062 239.007812 410.816406 C 238.75 408.222656 238.558594 405.621094 238.429688 403.015625 C 238.304688 400.410156 238.238281 397.804688 238.238281 395.199219 L 238.238281 392.328125 C 240.664062 391.917969 243.078125 391.460938 245.484375 390.953125 C 247.890625 390.449219 250.285156 389.898438 252.671875 389.300781 C 255.054688 388.703125 257.429688 388.058594 259.789062 387.371094 C 262.148438 386.683594 264.492188 385.949219 266.824219 385.167969 C 269.15625 384.390625 271.472656 383.566406 273.773438 382.695312 C 276.074219 381.828125 278.355469 380.914062 280.621094 379.957031 C 282.882812 379 285.128906 378 287.355469 376.957031 C 289.582031 375.914062 291.789062 374.828125 293.972656 373.699219 C 296.15625 372.570312 298.316406 371.402344 300.457031 370.1875 C 302.597656 368.976562 304.710938 367.726562 306.800781 366.429688 C 308.894531 365.136719 310.957031 363.804688 312.996094 362.433594 C 315.035156 361.058594 317.050781 359.648438 319.035156 358.195312 C 321.019531 356.746094 322.976562 355.257812 324.902344 353.730469 C 326.828125 352.203125 328.726562 350.640625 330.59375 349.042969 C 332.460938 347.441406 334.296875 345.808594 336.101562 344.136719 C 337.90625 342.46875 339.675781 340.765625 341.414062 339.027344 C 343.152344 337.285156 344.859375 335.515625 346.527344 333.710938 C 348.199219 331.90625 349.832031 330.070312 351.433594 328.203125 C 353.03125 326.335938 354.59375 324.441406 356.121094 322.511719 C 357.648438 320.585938 359.136719 318.628906 360.585938 316.644531 C 362.035156 314.660156 363.449219 312.644531 364.820312 310.605469 C 366.195312 308.566406 367.527344 306.503906 368.820312 304.410156 C 370.113281 302.320312 371.367188 300.207031 372.578125 298.066406 C 373.792969 295.925781 374.960938 293.765625 376.089844 291.582031 C 377.21875 289.398438 378.304688 287.191406 379.347656 284.964844 C 380.390625 282.738281 381.390625 280.496094 382.347656 278.230469 C 383.304688 275.964844 384.21875 273.683594 385.085938 271.382812 C 385.957031 269.082031 386.777344 266.765625 387.558594 264.433594 C 388.339844 262.105469 389.074219 259.757812 389.761719 257.398438 C 390.449219 255.039062 391.09375 252.664062 391.691406 250.28125 C 392.289062 247.894531 392.839844 245.5 393.34375 243.09375 C 393.847656 240.6875 394.308594 238.273438 394.71875 235.847656 L 397.589844 235.847656 C 400.195312 235.847656 402.800781 235.914062 405.40625 236.039062 C 408.011719 236.167969 410.613281 236.359375 413.207031 236.617188 C 415.800781 236.871094 418.390625 237.191406 420.96875 237.574219 C 423.550781 237.957031 426.117188 238.402344 428.675781 238.910156 C 431.234375 239.417969 433.777344 239.992188 436.308594 240.625 C 438.835938 241.257812 441.347656 241.953125 443.84375 242.710938 C 446.339844 243.46875 448.816406 244.285156 451.269531 245.164062 C 453.726562 246.042969 456.160156 246.980469 458.566406 247.980469 C 460.976562 248.976562 463.359375 250.03125 465.71875 251.148438 C 468.074219 252.261719 470.40625 253.433594 472.703125 254.664062 C 475.003906 255.894531 477.273438 257.179688 479.511719 258.519531 C 481.746094 259.859375 483.949219 261.253906 486.117188 262.703125 C 488.285156 264.152344 490.417969 265.652344 492.511719 267.207031 C 494.605469 268.761719 496.664062 270.363281 498.679688 272.019531 C 500.695312 273.675781 502.667969 275.375 504.601562 277.128906 C 506.53125 278.878906 508.421875 280.675781 510.265625 282.519531 C 512.109375 284.363281 513.90625 286.253906 515.65625 288.1875 C 517.410156 290.117188 519.113281 292.09375 520.765625 294.109375 C 522.421875 296.125 524.023438 298.179688 525.578125 300.273438 C 527.132812 302.367188 528.632812 304.5 530.082031 306.667969 C 531.53125 308.835938 532.925781 311.039062 534.265625 313.277344 C 535.605469 315.511719 536.890625 317.78125 538.121094 320.082031 C 539.351562 322.382812 540.523438 324.710938 541.636719 327.066406 C 542.753906 329.425781 543.808594 331.808594 544.808594 334.21875 C 545.804688 336.628906 546.742188 339.058594 547.621094 341.515625 C 548.5 343.96875 549.320312 346.445312 550.074219 348.941406 C 550.832031 351.4375 551.527344 353.949219 552.160156 356.480469 C 552.796875 359.007812 553.367188 361.550781 553.875 364.109375 C 554.382812 366.667969 554.828125 369.238281 555.210938 371.816406 C 555.59375 374.394531 555.914062 376.984375 556.171875 379.578125 C 556.425781 382.175781 556.617188 384.773438 556.746094 387.378906 C 556.875 389.984375 556.9375 392.589844 556.9375 395.199219 C 556.996094 407.289062 555.679688 419.226562 552.988281 431.011719 C 550.296875 442.800781 546.304688 454.125 541.003906 464.992188 C 540.1875 466.503906 539.628906 468.101562 539.328125 469.792969 C 539.027344 471.480469 539.003906 473.175781 539.25 474.871094 Z M 539.25 474.871094 " fill-opacity="1" fill-rule="nonzero"/></g><path fill="#000000" d="M 225.808594 127.808594 C 225.808594 128.445312 225.777344 129.082031 225.714844 129.714844 C 225.652344 130.347656 225.5625 130.976562 225.4375 131.601562 C 225.3125 132.226562 225.15625 132.84375 224.972656 133.453125 C 224.789062 134.0625 224.574219 134.660156 224.332031 135.25 C 224.085938 135.839844 223.816406 136.414062 223.515625 136.972656 C 223.214844 137.535156 222.886719 138.082031 222.535156 138.609375 C 222.179688 139.140625 221.800781 139.652344 221.398438 140.144531 C 220.992188 140.636719 220.566406 141.105469 220.117188 141.558594 C 219.664062 142.007812 219.195312 142.433594 218.703125 142.839844 C 218.210938 143.242188 217.699219 143.621094 217.171875 143.972656 C 216.640625 144.328125 216.09375 144.65625 215.535156 144.957031 C 214.972656 145.253906 214.398438 145.527344 213.808594 145.769531 C 213.21875 146.015625 212.621094 146.230469 212.011719 146.414062 C 211.402344 146.597656 210.785156 146.753906 210.160156 146.878906 C 209.539062 147 208.910156 147.09375 208.273438 147.15625 C 207.640625 147.21875 207.007812 147.25 206.371094 147.25 C 205.734375 147.25 205.097656 147.21875 204.464844 147.15625 C 203.832031 147.09375 203.203125 147 202.578125 146.878906 C 201.953125 146.753906 201.335938 146.597656 200.726562 146.414062 C 200.117188 146.230469 199.519531 146.015625 198.929688 145.769531 C 198.339844 145.527344 197.765625 145.253906 197.207031 144.957031 C 196.644531 144.65625 196.097656 144.328125 195.570312 143.972656 C 195.039062 143.621094 194.527344 143.242188 194.035156 142.839844 C 193.542969 142.433594 193.074219 142.007812 192.621094 141.558594 C 192.171875 141.105469 191.746094 140.636719 191.339844 140.144531 C 190.9375 139.652344 190.558594 139.140625 190.207031 138.609375 C 189.851562 138.082031 189.523438 137.535156 189.222656 136.972656 C 188.925781 136.414062 188.652344 135.839844 188.410156 135.25 C 188.164062 134.660156 187.949219 134.0625 187.765625 133.453125 C 187.582031 132.84375 187.425781 132.226562 187.300781 131.601562 C 187.179688 130.976562 187.085938 130.347656 187.023438 129.714844 C 186.960938 129.082031 186.929688 128.445312 186.929688 127.808594 C 186.929688 127.171875 186.960938 126.539062 187.023438 125.90625 C 187.085938 125.269531 187.179688 124.640625 187.300781 124.019531 C 187.425781 123.394531 187.582031 122.777344 187.765625 122.167969 C 187.949219 121.558594 188.164062 120.957031 188.410156 120.371094 C 188.652344 119.78125 188.925781 119.207031 189.222656 118.644531 C 189.523438 118.085938 189.851562 117.539062 190.207031 117.007812 C 190.558594 116.480469 190.9375 115.96875 191.339844 115.476562 C 191.746094 114.984375 192.171875 114.515625 192.621094 114.0625 C 193.074219 113.613281 193.542969 113.1875 194.035156 112.78125 C 194.527344 112.378906 195.039062 112 195.570312 111.644531 C 196.097656 111.292969 196.644531 110.964844 197.207031 110.664062 C 197.765625 110.363281 198.339844 110.09375 198.929688 109.847656 C 199.519531 109.605469 200.117188 109.390625 200.726562 109.207031 C 201.335938 109.023438 201.953125 108.867188 202.578125 108.742188 C 203.203125 108.617188 203.832031 108.527344 204.464844 108.464844 C 205.097656 108.402344 205.734375 108.371094 206.371094 108.371094 C 207.007812 108.371094 207.640625 108.402344 208.273438 108.464844 C 208.910156 108.527344 209.539062 108.617188 210.160156 108.742188 C 210.785156 108.867188 211.402344 109.023438 212.011719 109.207031 C 212.621094 109.390625 213.21875 109.605469 213.808594 109.847656 C 214.398438 110.09375 214.972656 110.363281 215.535156 110.664062 C 216.09375 110.964844 216.640625 111.292969 217.171875 111.644531 C 217.699219 112 218.210938 112.378906 218.703125 112.78125 C 219.195312 113.1875 219.664062 113.613281 220.117188 114.0625 C 220.566406 114.515625 220.992188 114.984375 221.398438 115.476562 C 221.800781 115.96875 222.179688 116.480469 222.535156 117.007812 C 222.886719 117.539062 223.214844 118.085938 223.515625 118.644531 C 223.816406 119.207031 224.085938 119.78125 224.332031 120.371094 C 224.574219 120.957031 224.789062 121.558594 224.972656 122.167969 C 225.15625 122.777344 225.3125 123.394531 225.4375 124.019531 C 225.5625 124.640625 225.652344 125.269531 225.714844 125.90625 C 225.777344 126.539062 225.808594 127.171875 225.808594 127.808594 Z M 225.808594 127.808594 " fill-opacity="1" fill-rule="nonzero"/><path fill="#000000" d="M 225.808594 299.589844 C 226.332031 299.589844 226.851562 299.5625 227.371094 299.511719 C 227.890625 299.460938 228.40625 299.382812 228.917969 299.28125 C 229.429688 299.179688 229.9375 299.054688 230.4375 298.902344 C 230.933594 298.75 231.425781 298.574219 231.90625 298.375 C 232.390625 298.175781 232.863281 297.953125 233.320312 297.707031 C 233.78125 297.460938 234.230469 297.191406 234.664062 296.902344 C 235.097656 296.613281 235.515625 296.300781 235.917969 295.972656 C 236.324219 295.640625 236.707031 295.289062 237.078125 294.921875 C 237.445312 294.550781 237.796875 294.167969 238.128906 293.761719 C 238.457031 293.359375 238.769531 292.941406 239.058594 292.507812 C 239.347656 292.074219 239.617188 291.625 239.863281 291.164062 C 240.109375 290.703125 240.332031 290.234375 240.53125 289.75 C 240.730469 289.269531 240.90625 288.777344 241.058594 288.277344 C 241.210938 287.78125 241.335938 287.273438 241.4375 286.761719 C 241.539062 286.25 241.617188 285.734375 241.667969 285.214844 C 241.71875 284.695312 241.746094 284.175781 241.746094 283.652344 C 241.746094 283.132812 241.71875 282.609375 241.667969 282.089844 C 241.617188 281.574219 241.539062 281.058594 241.4375 280.542969 C 241.335938 280.03125 241.210938 279.527344 241.058594 279.027344 C 240.90625 278.527344 240.730469 278.039062 240.53125 277.554688 C 240.332031 277.074219 240.109375 276.601562 239.863281 276.140625 C 239.617188 275.683594 239.347656 275.234375 239.058594 274.800781 C 238.769531 274.367188 238.457031 273.949219 238.128906 273.542969 C 237.796875 273.140625 237.445312 272.753906 237.078125 272.386719 C 236.707031 272.015625 236.324219 271.667969 235.917969 271.335938 C 235.515625 271.003906 235.097656 270.695312 234.664062 270.402344 C 234.230469 270.113281 233.78125 269.847656 233.320312 269.601562 C 232.863281 269.355469 232.390625 269.132812 231.90625 268.933594 C 231.425781 268.730469 230.933594 268.554688 230.4375 268.40625 C 229.9375 268.253906 229.429688 268.125 228.917969 268.023438 C 228.40625 267.921875 227.890625 267.847656 227.371094 267.796875 C 226.851562 267.746094 226.332031 267.71875 225.808594 267.71875 L 222.304688 267.71875 L 222.304688 186.292969 C 222.304688 185.769531 222.277344 185.25 222.226562 184.730469 C 222.175781 184.210938 222.101562 183.695312 222 183.183594 C 221.894531 182.671875 221.769531 182.164062 221.617188 181.664062 C 221.464844 181.167969 221.289062 180.675781 221.089844 180.191406 C 220.890625 179.710938 220.667969 179.238281 220.421875 178.78125 C 220.175781 178.320312 219.910156 177.871094 219.617188 177.4375 C 219.328125 177.003906 219.019531 176.585938 218.6875 176.183594 C 218.355469 175.777344 218.007812 175.394531 217.636719 175.023438 C 217.269531 174.65625 216.882812 174.304688 216.476562 173.972656 C 216.074219 173.640625 215.65625 173.332031 215.222656 173.042969 C 214.789062 172.753906 214.339844 172.484375 213.882812 172.238281 C 213.421875 171.992188 212.949219 171.769531 212.46875 171.570312 C 211.984375 171.371094 211.496094 171.195312 210.996094 171.042969 C 210.496094 170.890625 209.988281 170.765625 209.476562 170.664062 C 208.964844 170.5625 208.449219 170.484375 207.929688 170.433594 C 207.410156 170.382812 206.890625 170.355469 206.371094 170.355469 L 186.929688 170.355469 C 186.40625 170.355469 185.886719 170.382812 185.367188 170.433594 C 184.847656 170.484375 184.332031 170.5625 183.820312 170.664062 C 183.308594 170.765625 182.800781 170.890625 182.304688 171.042969 C 181.804688 171.195312 181.3125 171.371094 180.832031 171.570312 C 180.347656 171.769531 179.878906 171.992188 179.417969 172.238281 C 178.957031 172.484375 178.507812 172.753906 178.074219 173.042969 C 177.640625 173.332031 177.222656 173.640625 176.820312 173.972656 C 176.417969 174.304688 176.03125 174.65625 175.660156 175.023438 C 175.292969 175.394531 174.941406 175.777344 174.609375 176.183594 C 174.28125 176.585938 173.96875 177.003906 173.679688 177.4375 C 173.390625 177.871094 173.121094 178.320312 172.875 178.78125 C 172.628906 179.238281 172.40625 179.710938 172.207031 180.191406 C 172.007812 180.675781 171.832031 181.167969 171.679688 181.664062 C 171.527344 182.164062 171.402344 182.671875 171.300781 183.183594 C 171.199219 183.695312 171.121094 184.210938 171.070312 184.730469 C 171.019531 185.25 170.992188 185.769531 170.992188 186.292969 C 170.992188 186.8125 171.019531 187.332031 171.070312 187.851562 C 171.121094 188.371094 171.199219 188.886719 171.300781 189.398438 C 171.402344 189.910156 171.527344 190.417969 171.679688 190.917969 C 171.832031 191.417969 172.007812 191.90625 172.207031 192.390625 C 172.40625 192.871094 172.628906 193.34375 172.875 193.804688 C 173.121094 194.261719 173.390625 194.710938 173.679688 195.144531 C 173.96875 195.578125 174.28125 195.996094 174.609375 196.398438 C 174.941406 196.804688 175.292969 197.191406 175.660156 197.558594 C 176.03125 197.929688 176.417969 198.277344 176.820312 198.609375 C 177.222656 198.941406 177.640625 199.25 178.074219 199.539062 C 178.507812 199.832031 178.957031 200.097656 179.417969 200.34375 C 179.878906 200.589844 180.347656 200.8125 180.832031 201.011719 C 181.3125 201.214844 181.804688 201.386719 182.304688 201.539062 C 182.800781 201.691406 183.308594 201.816406 183.820312 201.921875 C 184.332031 202.023438 184.847656 202.097656 185.367188 202.148438 C 185.886719 202.199219 186.40625 202.226562 186.929688 202.226562 L 190.433594 202.226562 L 190.433594 267.71875 L 186.929688 267.71875 C 186.40625 267.71875 185.886719 267.746094 185.367188 267.796875 C 184.847656 267.847656 184.332031 267.921875 183.820312 268.023438 C 183.308594 268.125 182.800781 268.253906 182.304688 268.40625 C 181.804688 268.554688 181.3125 268.730469 180.832031 268.933594 C 180.347656 269.132812 179.878906 269.355469 179.417969 269.601562 C 178.957031 269.847656 178.507812 270.113281 178.074219 270.402344 C 177.640625 270.695312 177.222656 271.003906 176.820312 271.335938 C 176.417969 271.667969 176.03125 272.015625 175.660156 272.386719 C 175.292969 272.753906 174.941406 273.140625 174.609375 273.542969 C 174.28125 273.949219 173.96875 274.367188 173.679688 274.800781 C 173.390625 275.234375 173.121094 275.683594 172.875 276.140625 C 172.628906 276.601562 172.40625 277.074219 172.207031 277.554688 C 172.007812 278.039062 171.832031 278.527344 171.679688 279.027344 C 171.527344 279.527344 171.402344 280.03125 171.300781 280.542969 C 171.199219 281.058594 171.121094 281.574219 171.070312 282.089844 C 171.019531 282.609375 170.992188 283.132812 170.992188 283.652344 C 170.992188 284.175781 171.019531 284.695312 171.070312 285.214844 C 171.121094 285.734375 171.199219 286.25 171.300781 286.761719 C 171.402344 287.273438 171.527344 287.78125 171.679688 288.277344 C 171.832031 288.777344 172.007812 289.269531 172.207031 289.75 C 172.40625 290.234375 172.628906 290.703125 172.875 291.164062 C 173.121094 291.625 173.390625 292.074219 173.679688 292.507812 C 173.96875 292.941406 174.28125 293.359375 174.609375 293.761719 C 174.941406 294.167969 175.292969 294.550781 175.660156 294.921875 C 176.03125 295.289062 176.417969 295.640625 176.820312 295.972656 C 177.222656 296.300781 177.640625 296.613281 178.074219 296.902344 C 178.507812 297.191406 178.957031 297.460938 179.417969 297.707031 C 179.878906 297.953125 180.347656 298.175781 180.832031 298.375 C 181.3125 298.574219 181.804688 298.75 182.304688 298.902344 C 182.800781 299.054688 183.308594 299.179688 183.820312 299.28125 C 184.332031 299.382812 184.847656 299.460938 185.367188 299.511719 C 185.886719 299.5625 186.40625 299.589844 186.929688 299.589844 Z M 225.808594 299.589844 " fill-opacity="1" fill-rule="nonzero"/><path fill="#000000" d="M 461.328125 315.523438 L 413.523438 315.523438 C 413 315.523438 412.480469 315.550781 411.960938 315.601562 C 411.441406 315.652344 410.925781 315.726562 410.414062 315.828125 C 409.902344 315.929688 409.398438 316.058594 408.898438 316.210938 C 408.398438 316.359375 407.90625 316.535156 407.425781 316.738281 C 406.941406 316.9375 406.472656 317.160156 406.011719 317.40625 C 405.550781 317.652344 405.105469 317.917969 404.671875 318.207031 C 404.234375 318.5 403.816406 318.808594 403.414062 319.140625 C 403.011719 319.472656 402.625 319.820312 402.253906 320.191406 C 401.886719 320.558594 401.535156 320.945312 401.207031 321.347656 C 400.875 321.753906 400.5625 322.171875 400.273438 322.605469 C 399.984375 323.039062 399.714844 323.488281 399.46875 323.945312 C 399.222656 324.40625 399 324.878906 398.800781 325.359375 C 398.601562 325.84375 398.425781 326.332031 398.273438 326.832031 C 398.121094 327.332031 397.996094 327.835938 397.894531 328.347656 C 397.792969 328.863281 397.714844 329.378906 397.664062 329.894531 C 397.613281 330.414062 397.589844 330.9375 397.589844 331.457031 C 397.589844 331.980469 397.613281 332.5 397.664062 333.019531 C 397.714844 333.539062 397.792969 334.054688 397.894531 334.566406 C 397.996094 335.078125 398.121094 335.585938 398.273438 336.085938 C 398.425781 336.582031 398.601562 337.074219 398.800781 337.554688 C 399 338.039062 399.222656 338.507812 399.46875 338.96875 C 399.714844 339.429688 399.984375 339.878906 400.273438 340.3125 C 400.5625 340.746094 400.875 341.164062 401.207031 341.566406 C 401.535156 341.972656 401.886719 342.355469 402.253906 342.726562 C 402.625 343.09375 403.011719 343.445312 403.414062 343.777344 C 403.816406 344.105469 404.234375 344.417969 404.671875 344.707031 C 405.105469 344.996094 405.550781 345.265625 406.011719 345.511719 C 406.472656 345.757812 406.941406 345.980469 407.425781 346.179688 C 407.90625 346.378906 408.398438 346.554688 408.898438 346.707031 C 409.398438 346.859375 409.902344 346.984375 410.414062 347.085938 C 410.925781 347.1875 411.441406 347.265625 411.960938 347.316406 C 412.480469 347.367188 413 347.394531 413.523438 347.394531 L 461.328125 347.394531 C 461.851562 347.394531 462.371094 347.367188 462.890625 347.316406 C 463.410156 347.265625 463.925781 347.1875 464.4375 347.085938 C 464.949219 346.984375 465.453125 346.859375 465.953125 346.707031 C 466.453125 346.554688 466.945312 346.378906 467.425781 346.179688 C 467.90625 345.980469 468.378906 345.757812 468.839844 345.511719 C 469.300781 345.265625 469.746094 344.996094 470.179688 344.707031 C 470.613281 344.417969 471.035156 344.105469 471.4375 343.777344 C 471.839844 343.445312 472.226562 343.09375 472.59375 342.726562 C 472.964844 342.355469 473.316406 341.972656 473.644531 341.566406 C 473.976562 341.164062 474.289062 340.746094 474.578125 340.3125 C 474.867188 339.878906 475.136719 339.429688 475.382812 338.96875 C 475.628906 338.507812 475.851562 338.039062 476.050781 337.554688 C 476.25 337.074219 476.425781 336.582031 476.578125 336.085938 C 476.726562 335.585938 476.855469 335.078125 476.957031 334.566406 C 477.058594 334.054688 477.136719 333.539062 477.1875 333.019531 C 477.238281 332.5 477.261719 331.980469 477.261719 331.457031 C 477.261719 330.9375 477.238281 330.414062 477.1875 329.894531 C 477.136719 329.378906 477.058594 328.863281 476.957031 328.347656 C 476.855469 327.835938 476.726562 327.332031 476.578125 326.832031 C 476.425781 326.332031 476.25 325.84375 476.050781 325.359375 C 475.851562 324.878906 475.628906 324.40625 475.382812 323.945312 C 475.136719 323.488281 474.867188 323.039062 474.578125 322.605469 C 474.289062 322.171875 473.976562 321.753906 473.644531 321.347656 C 473.316406 320.945312 472.964844 320.558594 472.59375 320.191406 C 472.226562 319.820312 471.839844 319.472656 471.4375 319.140625 C 471.035156 318.808594 470.613281 318.5 470.179688 318.207031 C 469.746094 317.917969 469.300781 317.652344 468.839844 317.40625 C 468.378906 317.160156 467.90625 316.9375 467.425781 316.738281 C 466.945312 316.535156 466.453125 316.359375 465.953125 316.210938 C 465.453125 316.058594 464.949219 315.929688 464.4375 315.828125 C 463.925781 315.726562 463.410156 315.652344 462.890625 315.601562 C 462.371094 315.550781 461.851562 315.523438 461.328125 315.523438 Z M 461.328125 315.523438 " fill-opacity="1" fill-rule="nonzero"/><path fill="#000000" d="M 461.328125 379.261719 L 333.847656 379.261719 C 333.328125 379.261719 332.804688 379.289062 332.285156 379.339844 C 331.765625 379.390625 331.25 379.46875 330.738281 379.570312 C 330.226562 379.671875 329.722656 379.796875 329.222656 379.949219 C 328.722656 380.101562 328.234375 380.277344 327.75 380.476562 C 327.269531 380.675781 326.796875 380.898438 326.335938 381.144531 C 325.875 381.390625 325.429688 381.660156 324.996094 381.949219 C 324.5625 382.238281 324.144531 382.550781 323.738281 382.878906 C 323.335938 383.210938 322.949219 383.5625 322.582031 383.929688 C 322.210938 384.300781 321.863281 384.683594 321.53125 385.089844 C 321.199219 385.492188 320.890625 385.910156 320.597656 386.34375 C 320.308594 386.777344 320.042969 387.226562 319.796875 387.6875 C 319.550781 388.148438 319.328125 388.617188 319.125 389.101562 C 318.925781 389.582031 318.75 390.074219 318.601562 390.574219 C 318.449219 391.070312 318.320312 391.578125 318.21875 392.089844 C 318.117188 392.601562 318.042969 393.117188 317.992188 393.636719 C 317.9375 394.15625 317.914062 394.675781 317.914062 395.199219 C 317.914062 395.71875 317.9375 396.242188 317.992188 396.761719 C 318.042969 397.277344 318.117188 397.792969 318.21875 398.304688 C 318.320312 398.820312 318.449219 399.324219 318.601562 399.824219 C 318.75 400.324219 318.925781 400.8125 319.125 401.296875 C 319.328125 401.777344 319.550781 402.25 319.796875 402.710938 C 320.042969 403.167969 320.308594 403.617188 320.597656 404.050781 C 320.890625 404.484375 321.199219 404.902344 321.53125 405.308594 C 321.863281 405.710938 322.210938 406.097656 322.582031 406.464844 C 322.949219 406.835938 323.335938 407.183594 323.738281 407.515625 C 324.144531 407.847656 324.5625 408.15625 324.996094 408.445312 C 325.429688 408.738281 325.875 409.003906 326.335938 409.25 C 326.796875 409.496094 327.269531 409.71875 327.75 409.917969 C 328.234375 410.121094 328.722656 410.296875 329.222656 410.445312 C 329.722656 410.597656 330.226562 410.726562 330.738281 410.828125 C 331.25 410.929688 331.765625 411.003906 332.285156 411.054688 C 332.804688 411.105469 333.328125 411.132812 333.847656 411.132812 L 461.328125 411.132812 C 461.851562 411.132812 462.371094 411.105469 462.890625 411.054688 C 463.410156 411.003906 463.925781 410.929688 464.4375 410.828125 C 464.949219 410.726562 465.453125 410.597656 465.953125 410.445312 C 466.453125 410.296875 466.945312 410.121094 467.425781 409.917969 C 467.90625 409.71875 468.378906 409.496094 468.839844 409.25 C 469.300781 409.003906 469.746094 408.738281 470.179688 408.445312 C 470.613281 408.15625 471.035156 407.847656 471.4375 407.515625 C 471.839844 407.183594 472.226562 406.835938 472.59375 406.464844 C 472.964844 406.097656 473.316406 405.710938 473.644531 405.308594 C 473.976562 404.902344 474.289062 404.484375 474.578125 404.050781 C 474.867188 403.617188 475.136719 403.167969 475.382812 402.710938 C 475.628906 402.25 475.851562 401.777344 476.050781 401.296875 C 476.25 400.8125 476.425781 400.324219 476.578125 399.824219 C 476.726562 399.324219 476.855469 398.820312 476.957031 398.304688 C 477.058594 397.792969 477.136719 397.277344 477.1875 396.761719 C 477.238281 396.242188 477.261719 395.71875 477.261719 395.199219 C 477.261719 394.675781 477.238281 394.15625 477.1875 393.636719 C 477.136719 393.117188 477.058594 392.601562 476.957031 392.089844 C 476.855469 391.578125 476.726562 391.070312 476.578125 390.570312 C 476.425781 390.074219 476.25 389.582031 476.050781 389.101562 C 475.851562 388.617188 475.628906 388.148438 475.382812 387.6875 C 475.136719 387.226562 474.867188 386.777344 474.578125 386.34375 C 474.289062 385.910156 473.976562 385.492188 473.644531 385.089844 C 473.316406 384.683594 472.964844 384.300781 472.59375 383.929688 C 472.226562 383.5625 471.839844 383.210938 471.4375 382.878906 C 471.035156 382.550781 470.613281 382.238281 470.179688 381.949219 C 469.746094 381.660156 469.300781 381.390625 468.839844 381.144531 C 468.378906 380.898438 467.90625 380.675781 467.425781 380.476562 C 466.945312 380.277344 466.453125 380.101562 465.953125 379.949219 C 465.453125 379.796875 464.949219 379.671875 464.4375 379.570312 C 463.925781 379.46875 463.410156 379.390625 462.890625 379.339844 C 462.371094 379.289062 461.851562 379.261719 461.328125 379.261719 Z M 461.328125 379.261719 " fill-opacity="1" fill-rule="nonzero"/><path fill="#000000" d="M 461.328125 443.003906 L 333.847656 443.003906 C 333.328125 443.003906 332.804688 443.027344 332.285156 443.078125 C 331.765625 443.128906 331.25 443.207031 330.738281 443.308594 C 330.226562 443.410156 329.722656 443.539062 329.222656 443.6875 C 328.722656 443.839844 328.234375 444.015625 327.75 444.214844 C 327.269531 444.414062 326.796875 444.636719 326.335938 444.882812 C 325.875 445.128906 325.429688 445.398438 324.996094 445.6875 C 324.5625 445.976562 324.144531 446.289062 323.738281 446.621094 C 323.335938 446.949219 322.949219 447.300781 322.582031 447.667969 C 322.210938 448.039062 321.863281 448.425781 321.53125 448.828125 C 321.199219 449.230469 320.890625 449.652344 320.597656 450.085938 C 320.308594 450.519531 320.042969 450.964844 319.796875 451.425781 C 319.550781 451.886719 319.328125 452.355469 319.125 452.839844 C 318.925781 453.320312 318.75 453.8125 318.601562 454.3125 C 318.449219 454.8125 318.320312 455.316406 318.21875 455.828125 C 318.117188 456.339844 318.042969 456.855469 317.992188 457.375 C 317.9375 457.894531 317.914062 458.414062 317.914062 458.9375 C 317.914062 459.460938 317.9375 459.980469 317.992188 460.5 C 318.042969 461.019531 318.117188 461.535156 318.21875 462.046875 C 318.320312 462.558594 318.449219 463.0625 318.601562 463.5625 C 318.75 464.0625 318.925781 464.554688 319.125 465.035156 C 319.328125 465.519531 319.550781 465.988281 319.796875 466.449219 C 320.042969 466.910156 320.308594 467.355469 320.597656 467.789062 C 320.890625 468.222656 321.199219 468.644531 321.53125 469.046875 C 321.863281 469.449219 322.210938 469.835938 322.582031 470.207031 C 322.949219 470.574219 323.335938 470.925781 323.738281 471.253906 C 324.144531 471.585938 324.5625 471.898438 324.996094 472.1875 C 325.429688 472.476562 325.875 472.746094 326.335938 472.992188 C 326.796875 473.238281 327.269531 473.460938 327.75 473.660156 C 328.234375 473.859375 328.722656 474.035156 329.222656 474.1875 C 329.722656 474.335938 330.226562 474.464844 330.738281 474.566406 C 331.25 474.667969 331.765625 474.746094 332.285156 474.796875 C 332.804688 474.847656 333.328125 474.871094 333.847656 474.871094 L 461.328125 474.871094 C 461.851562 474.871094 462.371094 474.847656 462.890625 474.796875 C 463.410156 474.746094 463.925781 474.667969 464.4375 474.566406 C 464.949219 474.464844 465.453125 474.335938 465.953125 474.1875 C 466.453125 474.035156 466.945312 473.859375 467.425781 473.660156 C 467.90625 473.460938 468.378906 473.238281 468.839844 472.992188 C 469.300781 472.746094 469.746094 472.476562 470.179688 472.1875 C 470.613281 471.898438 471.035156 471.585938 471.4375 471.253906 C 471.839844 470.925781 472.226562 470.574219 472.59375 470.207031 C 472.964844 469.835938 473.316406 469.449219 473.644531 469.046875 C 473.976562 468.644531 474.289062 468.222656 474.578125 467.789062 C 474.867188 467.355469 475.136719 466.910156 475.382812 466.449219 C 475.628906 465.988281 475.851562 465.519531 476.050781 465.035156 C 476.25 464.554688 476.425781 464.0625 476.578125 463.5625 C 476.726562 463.0625 476.855469 462.558594 476.957031 462.046875 C 477.058594 461.535156 477.136719 461.019531 477.1875 460.5 C 477.238281 459.980469 477.261719 459.460938 477.261719 458.9375 C 477.261719 458.414062 477.238281 457.894531 477.1875 457.375 C 477.136719 456.855469 477.058594 456.339844 476.957031 455.828125 C 476.855469 455.316406 476.726562 454.8125 476.578125 454.3125 C 476.425781 453.8125 476.25 453.320312 476.050781 452.839844 C 475.851562 452.355469 475.628906 451.886719 475.382812 451.425781 C 475.136719 450.964844 474.867188 450.519531 474.578125 450.085938 C 474.289062 449.652344 473.976562 449.230469 473.644531 448.828125 C 473.316406 448.425781 472.964844 448.039062 472.59375 447.667969 C 472.226562 447.300781 471.839844 446.949219 471.4375 446.621094 C 471.035156 446.289062 470.613281 445.976562 470.179688 445.6875 C 469.746094 445.398438 469.300781 445.128906 468.839844 444.882812 C 468.378906 444.636719 467.90625 444.414062 467.425781 444.214844 C 466.945312 444.015625 466.453125 443.839844 465.953125 443.6875 C 465.453125 443.539062 464.949219 443.410156 464.4375 443.308594 C 463.925781 443.207031 463.410156 443.128906 462.890625 443.078125 C 462.371094 443.027344 461.851562 443.003906 461.328125 443.003906 Z M 461.328125 443.003906 " fill-opacity="1" fill-rule="nonzero"/></svg>