<svg xmlns="http://www.w3.org/2000/svg" xmlns:xlink="http://www.w3.org/1999/xlink" width="800" zoomAndPan="magnify" viewBox="0 0 600 599.999999" height="800" preserveAspectRatio="xMidYMid meet" version="1.0"><defs><clipPath id="bf397b57bf"><path d="M 6.042969 15.230469 L 594 15.230469 L 594 584.480469 L 6.042969 584.480469 Z M 6.042969 15.230469 " clip-rule="nonzero"/></clipPath></defs><g clip-path="url(#bf397b57bf)"><path fill="#000000" d="M 471.851562 308.578125 L 471.851562 253.488281 L 481.039062 253.488281 C 486.550781 253.488281 490.226562 249.816406 490.226562 244.308594 L 490.226562 225.027344 C 495.738281 223.191406 501.25 221.355469 506.761719 218.597656 L 520.542969 232.371094 C 524.21875 236.042969 529.730469 236.042969 533.40625 232.371094 L 560.050781 205.746094 C 561.886719 203.910156 562.808594 202.074219 562.808594 199.316406 C 562.808594 196.5625 561.886719 194.726562 560.050781 192.890625 L 546.269531 179.117188 C 549.027344 173.609375 550.863281 168.101562 552.699219 162.59375 L 571.996094 162.59375 C 577.507812 162.59375 581.183594 158.917969 581.183594 153.410156 L 581.183594 115.765625 C 581.183594 110.257812 577.507812 106.585938 571.996094 106.585938 L 552.699219 106.585938 C 550.863281 101.078125 549.027344 95.566406 546.269531 90.058594 L 560.050781 76.285156 C 561.886719 74.449219 562.808594 72.613281 562.808594 69.859375 C 562.808594 67.105469 561.886719 65.269531 560.050781 63.433594 L 533.40625 36.804688 C 529.730469 33.132812 524.21875 33.132812 520.542969 36.804688 L 506.761719 50.578125 C 501.25 47.824219 495.738281 45.988281 490.226562 44.152344 L 490.226562 24.871094 C 490.226562 19.359375 486.550781 15.6875 481.039062 15.6875 L 443.371094 15.6875 C 437.855469 15.6875 434.183594 19.359375 434.183594 24.871094 L 434.183594 44.152344 C 428.667969 45.988281 423.15625 47.824219 417.644531 50.578125 L 403.863281 36.804688 C 402.027344 34.96875 400.1875 34.050781 397.433594 34.050781 C 394.675781 34.050781 393.757812 34.96875 391.917969 36.804688 L 365.277344 63.433594 C 361.601562 67.105469 361.601562 72.613281 365.277344 76.285156 L 379.058594 90.058594 C 376.300781 95.566406 374.464844 101.078125 372.625 106.585938 L 353.332031 106.585938 C 347.820312 106.585938 344.144531 110.257812 344.144531 115.765625 L 344.144531 152.492188 C 344.144531 158 347.820312 161.675781 353.332031 161.675781 L 372.625 161.675781 C 374.464844 167.183594 376.300781 172.691406 379.058594 178.199219 L 365.277344 191.972656 C 363.4375 193.808594 362.519531 195.644531 362.519531 198.398438 C 362.519531 201.15625 363.4375 202.992188 365.277344 204.828125 L 391.917969 231.453125 C 395.59375 235.125 401.105469 235.125 404.78125 231.453125 L 418.5625 217.679688 C 424.074219 220.4375 429.589844 222.273438 435.101562 224.109375 L 435.101562 243.390625 C 435.101562 248.898438 438.777344 252.570312 444.289062 252.570312 L 453.476562 252.570312 L 453.476562 306.742188 C 418.5625 307.660156 386.40625 320.515625 361.601562 344.386719 L 287.183594 270.015625 L 294.53125 262.671875 C 296.371094 260.835938 297.289062 259 297.289062 256.242188 C 297.289062 253.488281 296.371094 251.652344 294.53125 249.816406 L 280.75 236.042969 C 283.507812 230.535156 285.34375 225.027344 287.183594 219.519531 L 306.476562 219.519531 C 311.988281 219.519531 315.664062 215.84375 315.664062 210.335938 L 315.664062 172.691406 C 315.664062 167.183594 311.988281 163.511719 306.476562 163.511719 L 287.183594 163.511719 C 285.34375 158 283.507812 152.492188 280.75 146.984375 L 294.53125 133.210938 C 298.207031 129.539062 298.207031 124.03125 294.53125 120.359375 L 267.886719 93.730469 C 266.050781 91.894531 264.214844 90.976562 261.457031 90.976562 C 258.699219 90.976562 256.863281 91.894531 255.027344 93.730469 L 241.246094 107.503906 C 235.730469 104.75 230.21875 102.914062 224.707031 101.078125 L 224.707031 83.632812 C 224.707031 78.121094 221.03125 74.449219 215.519531 74.449219 L 177.851562 74.449219 C 172.339844 74.449219 168.664062 78.121094 168.664062 83.632812 L 168.664062 102.914062 C 163.152344 104.75 157.636719 106.585938 152.125 109.339844 L 138.34375 95.566406 C 136.507812 93.730469 134.667969 92.8125 131.914062 92.8125 C 129.15625 92.8125 127.320312 93.730469 125.480469 95.566406 L 98.839844 122.195312 C 95.164062 125.867188 95.164062 131.375 98.839844 135.046875 L 112.621094 148.820312 C 109.863281 154.328125 108.027344 159.835938 106.1875 165.347656 L 87.8125 165.347656 C 82.300781 165.347656 78.625 169.019531 78.625 174.527344 L 78.625 212.171875 C 78.625 217.679688 82.300781 221.355469 87.8125 221.355469 L 107.105469 221.355469 C 108.945312 226.863281 110.78125 232.371094 113.539062 237.878906 L 99.757812 251.652344 C 96.082031 255.324219 96.082031 260.835938 99.757812 264.507812 L 126.402344 291.132812 C 128.238281 292.96875 130.074219 293.886719 132.832031 293.886719 C 135.589844 293.886719 137.425781 292.96875 139.261719 291.132812 L 153.042969 277.359375 C 158.558594 280.117188 164.070312 281.953125 169.582031 283.789062 L 169.582031 303.070312 C 169.582031 308.578125 173.257812 312.25 178.769531 312.25 L 216.4375 312.25 C 221.949219 312.25 225.625 308.578125 225.625 303.070312 L 225.625 283.789062 C 231.136719 281.953125 236.652344 280.117188 242.164062 277.359375 L 255.945312 291.132812 C 259.621094 294.804688 265.132812 294.804688 268.808594 291.132812 L 275.238281 284.707031 L 349.65625 359.078125 C 329.445312 383.867188 318.417969 414.164062 318.417969 446.300781 C 318.417969 449.972656 318.417969 452.726562 319.339844 456.398438 L 244 456.398438 L 244 447.21875 C 244 441.710938 240.324219 438.039062 234.8125 438.039062 L 215.519531 438.039062 C 213.683594 432.527344 211.84375 427.019531 209.089844 421.511719 L 222.871094 407.738281 C 226.542969 404.066406 226.542969 398.558594 222.871094 394.882812 L 196.226562 368.257812 C 194.386719 366.421875 192.550781 365.503906 189.792969 365.503906 C 187.039062 365.503906 185.199219 366.421875 183.363281 368.257812 L 169.582031 382.03125 C 164.070312 379.277344 158.558594 377.4375 153.042969 375.601562 L 153.042969 354.484375 C 153.042969 348.976562 149.371094 345.304688 143.855469 345.304688 L 106.1875 345.304688 C 100.675781 345.304688 97 348.976562 97 354.484375 L 97 373.765625 C 91.488281 375.601562 85.976562 377.4375 80.464844 380.195312 L 66.683594 366.421875 C 64.84375 364.585938 63.007812 363.667969 60.25 363.667969 C 57.496094 363.667969 55.65625 364.585938 53.820312 366.421875 L 27.175781 393.046875 C 23.5 396.71875 23.5 402.230469 27.175781 405.902344 L 40.957031 419.675781 C 38.199219 425.183594 36.363281 430.691406 34.527344 436.199219 L 15.230469 436.199219 C 9.71875 436.199219 6.042969 439.875 6.042969 445.382812 L 6.042969 483.027344 C 6.042969 488.535156 9.71875 492.207031 15.230469 492.207031 L 34.527344 492.207031 C 36.363281 497.71875 38.199219 503.226562 40.957031 508.734375 L 27.175781 522.507812 C 23.5 526.179688 23.5 531.6875 27.175781 535.359375 L 53.820312 561.988281 C 55.65625 563.824219 57.496094 564.742188 60.25 564.742188 C 63.007812 564.742188 64.84375 563.824219 66.683594 561.988281 L 80.464844 548.214844 C 85.976562 550.96875 91.488281 552.804688 97 554.640625 L 97 573.921875 C 97 579.433594 100.675781 583.105469 106.1875 583.105469 L 143.855469 583.105469 C 149.371094 583.105469 153.042969 579.433594 153.042969 573.921875 L 153.042969 554.640625 C 158.558594 552.804688 164.070312 550.96875 169.582031 548.214844 L 183.363281 561.988281 C 187.039062 565.660156 192.550781 565.660156 196.226562 561.988281 L 222.871094 535.359375 C 224.707031 533.523438 225.625 531.6875 225.625 528.933594 C 225.625 526.179688 224.707031 524.34375 222.871094 522.507812 L 208.167969 508.734375 C 210.925781 503.226562 212.761719 497.71875 214.601562 492.207031 L 233.894531 492.207031 C 239.40625 492.207031 243.082031 488.535156 243.082031 483.027344 L 243.082031 473.84375 L 320.257812 473.84375 C 333.121094 537.199219 389.164062 584.023438 455.3125 584.023438 C 529.730469 584.023438 593.125 523.425781 593.125 446.300781 C 594.042969 373.765625 539.839844 315.921875 471.851562 308.578125 Z M 446.125 208.5 C 437.855469 206.664062 429.589844 202.992188 422.238281 198.398438 C 418.5625 195.644531 413.96875 196.5625 411.214844 199.316406 L 399.269531 211.253906 L 385.488281 198.398438 L 397.433594 186.464844 C 400.1875 183.710938 401.105469 179.117188 398.351562 175.445312 C 393.757812 168.101562 390.082031 159.835938 388.246094 151.574219 C 387.324219 146.984375 383.652344 144.230469 379.058594 144.230469 L 362.519531 144.230469 L 362.519531 124.949219 L 379.058594 124.949219 C 383.652344 124.949219 387.324219 122.195312 388.246094 117.601562 C 390.082031 109.339844 393.757812 101.078125 398.351562 93.730469 C 401.105469 90.058594 400.1875 85.46875 397.433594 82.714844 L 385.488281 69.859375 L 399.269531 56.085938 L 410.292969 68.941406 C 413.050781 71.695312 417.644531 72.613281 421.320312 69.859375 C 428.667969 65.269531 436.9375 61.597656 445.207031 59.757812 C 449.800781 58.839844 452.558594 55.167969 452.558594 50.578125 L 452.558594 34.050781 L 471.851562 34.050781 L 471.851562 50.578125 C 471.851562 55.167969 474.605469 58.839844 479.199219 59.757812 C 487.46875 61.597656 495.738281 65.269531 503.089844 69.859375 C 506.761719 72.613281 511.355469 71.695312 514.113281 68.941406 L 526.058594 57.003906 L 540.757812 69.859375 L 528.8125 81.796875 C 526.058594 84.550781 525.136719 89.140625 527.894531 92.8125 C 532.488281 100.15625 536.164062 108.421875 538 116.683594 C 538.917969 121.277344 542.59375 124.03125 547.1875 124.03125 L 563.726562 124.03125 L 563.726562 143.3125 L 547.1875 143.3125 C 542.59375 143.3125 538.917969 146.066406 538 150.65625 C 536.164062 158.917969 532.488281 167.183594 527.894531 174.527344 C 525.136719 178.199219 526.058594 182.792969 528.8125 185.546875 L 540.757812 197.480469 L 526.976562 211.253906 L 515.03125 199.316406 C 512.277344 196.5625 507.683594 195.644531 504.007812 198.398438 C 496.65625 202.992188 488.386719 206.664062 480.121094 208.5 C 475.527344 209.417969 472.769531 213.089844 472.769531 217.679688 L 472.769531 234.207031 L 453.476562 234.207031 L 453.476562 217.679688 C 453.476562 213.089844 449.800781 209.417969 446.125 208.5 Z M 249.511719 258.996094 C 246.757812 256.242188 242.164062 255.324219 238.488281 258.078125 C 231.136719 262.671875 222.871094 266.34375 214.601562 268.179688 C 210.007812 269.097656 207.25 272.769531 207.25 277.359375 L 207.25 293.886719 L 187.957031 293.886719 L 187.957031 277.359375 C 187.957031 272.769531 185.199219 269.097656 180.605469 268.179688 C 172.339844 266.34375 164.070312 262.671875 156.71875 258.078125 C 153.042969 255.324219 148.449219 256.242188 145.695312 259 L 133.75 270.933594 L 119.96875 257.160156 L 131.914062 245.226562 C 134.667969 242.472656 135.589844 237.878906 132.832031 234.207031 C 128.238281 226.863281 124.5625 218.597656 122.726562 210.335938 C 121.808594 205.746094 118.132812 202.992188 113.539062 202.992188 L 97 202.992188 L 97 183.710938 L 113.539062 183.710938 C 118.132812 183.710938 121.808594 180.957031 122.726562 176.363281 C 124.5625 168.101562 128.238281 159.835938 132.832031 152.492188 C 135.589844 148.820312 134.667969 144.230469 131.914062 141.476562 L 119.96875 129.539062 L 133.75 115.765625 L 145.695312 127.703125 C 148.449219 130.457031 153.042969 131.375 156.71875 128.621094 C 164.070312 124.03125 172.339844 120.359375 180.605469 118.519531 C 185.199219 117.601562 187.957031 113.929688 187.957031 109.339844 L 187.957031 92.8125 L 207.25 92.8125 L 207.25 109.339844 C 207.25 113.929688 210.007812 117.601562 214.601562 118.519531 C 222.871094 120.359375 231.136719 124.03125 238.488281 128.621094 C 242.164062 131.375 246.757812 130.457031 249.511719 127.703125 L 261.457031 115.765625 L 275.238281 129.539062 L 263.292969 140.558594 C 260.539062 143.3125 259.621094 147.902344 262.375 151.574219 C 266.96875 158.917969 270.644531 167.183594 272.480469 175.445312 C 273.402344 180.039062 277.074219 182.792969 281.667969 182.792969 L 298.207031 182.792969 L 298.207031 202.074219 L 281.667969 202.074219 C 277.074219 202.074219 273.402344 204.828125 272.480469 209.417969 C 270.644531 217.679688 266.96875 225.945312 262.375 233.289062 C 259.621094 236.960938 260.539062 241.554688 263.292969 244.308594 L 275.238281 256.242188 L 267.886719 263.589844 L 261.457031 270.015625 Z M 224.707031 473.84375 L 208.167969 473.84375 C 203.574219 473.84375 199.902344 476.597656 198.980469 481.191406 C 197.144531 489.453125 193.46875 497.71875 188.875 505.0625 C 186.121094 508.734375 187.039062 513.324219 189.792969 516.078125 L 201.738281 528.015625 L 187.957031 541.789062 L 176.011719 529.851562 C 173.257812 527.097656 168.664062 526.179688 164.988281 528.933594 C 157.636719 533.523438 149.371094 537.199219 141.101562 539.035156 C 136.507812 539.953125 133.75 543.625 133.75 548.214844 L 133.75 564.742188 L 114.457031 564.742188 L 114.457031 547.296875 C 114.457031 542.707031 111.699219 539.035156 107.105469 538.117188 C 98.839844 536.277344 90.570312 532.605469 83.21875 528.015625 C 79.542969 525.261719 74.949219 526.179688 72.195312 528.933594 L 60.25 540.871094 L 46.46875 527.097656 L 58.414062 515.160156 C 61.167969 512.40625 62.089844 507.816406 59.332031 504.144531 C 54.738281 496.800781 51.0625 488.535156 49.226562 480.273438 C 48.308594 475.679688 44.632812 472.925781 40.039062 472.925781 L 24.417969 472.925781 L 24.417969 453.644531 L 40.957031 453.644531 C 45.550781 453.644531 49.226562 450.890625 50.144531 446.300781 C 51.980469 438.039062 55.65625 429.773438 60.25 422.429688 C 63.007812 418.757812 62.089844 414.164062 59.332031 411.410156 L 47.386719 400.394531 L 61.167969 386.621094 L 73.113281 398.558594 C 75.871094 401.3125 80.464844 402.230469 84.136719 399.476562 C 91.488281 394.882812 99.757812 391.210938 108.027344 389.375 C 112.621094 388.457031 115.375 384.785156 115.375 380.195312 L 115.375 363.667969 L 134.667969 363.667969 L 134.667969 380.195312 C 134.667969 384.785156 137.425781 388.457031 142.019531 389.375 C 150.289062 391.210938 158.558594 394.882812 165.90625 399.476562 C 169.582031 401.3125 174.175781 401.3125 176.933594 398.558594 L 188.875 386.621094 L 202.65625 400.394531 L 190.714844 412.328125 C 187.957031 415.082031 187.039062 419.675781 189.792969 423.347656 C 194.386719 430.691406 198.0625 438.957031 199.902344 447.21875 C 200.820312 451.808594 204.496094 454.5625 209.089844 454.5625 L 225.625 454.5625 L 225.625 473.84375 Z M 507.683594 391.210938 C 520.542969 404.066406 527.894531 421.511719 527.894531 439.875 C 527.894531 464.664062 515.949219 483.945312 492.0625 494.042969 C 488.386719 495.878906 486.550781 498.636719 486.550781 502.308594 L 487.46875 560.152344 C 478.28125 562.90625 468.175781 563.824219 459.90625 564.742188 C 452.558594 564.742188 441.53125 564.742188 432.34375 561.988281 L 431.425781 503.226562 C 431.425781 499.554688 429.589844 495.878906 425.914062 494.960938 C 402.945312 484.863281 388.246094 463.746094 388.246094 439.875 C 388.246094 421.511719 395.59375 404.984375 407.539062 392.128906 L 408.457031 433.445312 C 408.457031 450.890625 423.15625 465.582031 441.53125 465.582031 L 476.445312 465.582031 C 484.714844 465.582031 492.980469 461.910156 499.414062 456.398438 C 505.84375 449.972656 508.601562 441.710938 508.601562 433.445312 Z M 505.84375 553.722656 L 504.925781 508.734375 C 531.570312 494.960938 547.1875 470.171875 546.269531 439.875 C 546.269531 416.917969 537.082031 394.882812 520.542969 378.359375 C 513.195312 371.011719 501.25 371.929688 493.902344 378.359375 C 490.226562 382.03125 488.386719 386.621094 488.386719 392.128906 L 489.308594 433.445312 C 489.308594 437.117188 488.386719 440.792969 485.632812 443.546875 C 482.875 446.300781 479.199219 447.21875 475.527344 447.21875 L 440.613281 447.21875 C 433.261719 447.21875 426.832031 440.792969 426.832031 433.445312 L 425.914062 392.128906 C 425.914062 382.03125 417.644531 373.765625 407.539062 373.765625 C 402.945312 373.765625 398.351562 375.601562 394.675781 379.277344 C 379.058594 395.800781 369.871094 417.839844 369.871094 439.875 C 369.871094 469.253906 386.40625 494.960938 413.050781 508.734375 L 413.96875 555.558594 C 368.03125 538.117188 336.792969 494.960938 336.792969 443.546875 C 336.792969 377.4375 390.082031 324.1875 456.230469 324.1875 C 522.382812 324.1875 575.667969 377.4375 575.667969 443.546875 C 575.667969 494.042969 547.1875 535.359375 505.84375 553.722656 Z M 505.84375 553.722656 " fill-opacity="1" fill-rule="nonzero"/></g><path fill="#000000" d="M 124.5625 402.230469 C 90.570312 402.230469 62.089844 429.773438 62.089844 464.664062 C 62.089844 499.554688 89.652344 527.097656 124.5625 527.097656 C 159.476562 527.097656 187.039062 499.554688 187.039062 464.664062 C 187.039062 429.773438 159.476562 402.230469 124.5625 402.230469 Z M 124.5625 508.734375 C 100.675781 508.734375 80.464844 488.535156 80.464844 464.664062 C 80.464844 440.792969 100.675781 420.59375 124.5625 420.59375 C 148.449219 420.59375 168.664062 440.792969 168.664062 464.664062 C 168.664062 488.535156 149.371094 508.734375 124.5625 508.734375 Z M 124.5625 508.734375 " fill-opacity="1" fill-rule="nonzero"/><path fill="#000000" d="M 197.144531 130.457031 C 163.152344 130.457031 134.667969 158 134.667969 192.890625 C 134.667969 227.78125 162.230469 255.324219 197.144531 255.324219 C 232.058594 255.324219 259.621094 227.78125 259.621094 192.890625 C 259.621094 158 232.058594 130.457031 197.144531 130.457031 Z M 197.144531 236.960938 C 173.257812 236.960938 153.042969 216.761719 153.042969 192.890625 C 153.042969 169.019531 173.257812 148.820312 197.144531 148.820312 C 221.03125 148.820312 241.246094 169.019531 241.246094 192.890625 C 241.246094 216.761719 221.949219 236.960938 197.144531 236.960938 Z M 197.144531 236.960938 " fill-opacity="1" fill-rule="nonzero"/><path fill="#000000" d="M 525.136719 134.128906 C 525.136719 100.15625 497.574219 71.695312 462.664062 71.695312 C 427.75 71.695312 400.1875 99.238281 400.1875 134.128906 C 400.1875 169.019531 427.75 196.5625 462.664062 196.5625 C 497.574219 196.5625 525.136719 169.019531 525.136719 134.128906 Z M 418.5625 134.128906 C 418.5625 110.257812 438.777344 90.058594 462.664062 90.058594 C 486.550781 90.058594 506.761719 110.257812 506.761719 134.128906 C 506.761719 158 486.550781 178.199219 462.664062 178.199219 C 438.777344 178.199219 418.5625 158.917969 418.5625 134.128906 Z M 418.5625 134.128906 " fill-opacity="1" fill-rule="nonzero"/></svg>