<svg xmlns="http://www.w3.org/2000/svg" xmlns:xlink="http://www.w3.org/1999/xlink" width="800" zoomAndPan="magnify" viewBox="0 0 600 599.999999" height="800" preserveAspectRatio="xMidYMid meet" version="1.0"><defs><clipPath id="d483cf0607"><path d="M 4.414062 43 L 595 43 L 595 557.71875 L 4.414062 557.71875 Z M 4.414062 43 " clip-rule="nonzero"/></clipPath></defs><g clip-path="url(#d483cf0607)"><path fill="#000000" d="M 591.421875 273.871094 L 518.589844 215.636719 C 518.589844 215.28125 518.824219 215.046875 518.824219 214.691406 L 518.824219 81.332031 C 518.824219 76.015625 514.574219 71.761719 509.261719 71.761719 L 452.128906 71.761719 C 446.816406 71.761719 442.566406 76.015625 442.566406 81.332031 L 442.566406 154.921875 L 305.753906 45.304688 C 302.332031 42.46875 297.375 42.46875 293.832031 45.304688 L 8.285156 273.871094 C 6.160156 275.523438 4.859375 278.125 4.742188 280.839844 C 4.625 283.558594 5.570312 286.15625 7.457031 288.046875 L 36.023438 316.632812 C 39.449219 320.058594 44.996094 320.410156 48.773438 317.339844 L 52.316406 314.503906 L 52.316406 548.152344 C 52.316406 553.464844 56.566406 557.71875 61.875 557.71875 L 537.828125 557.71875 C 543.140625 557.71875 547.390625 553.464844 547.390625 548.152344 L 547.390625 314.386719 L 550.933594 317.222656 C 552.703125 318.640625 554.828125 319.347656 556.953125 319.347656 C 559.433594 319.347656 561.792969 318.402344 563.679688 316.511719 L 592.25 287.925781 C 594.136719 286.039062 595.199219 283.320312 594.964844 280.722656 C 594.84375 278.125 593.546875 275.523438 591.421875 273.871094 Z M 461.691406 166.96875 L 461.691406 90.78125 L 499.820312 90.78125 L 499.820312 200.515625 L 461.21875 169.570312 C 461.457031 168.742188 461.691406 167.914062 461.691406 166.96875 Z M 233.160156 538.582031 L 233.160156 395.65625 L 366.429688 395.65625 L 366.429688 538.582031 Z M 528.386719 300.332031 L 528.386719 538.464844 L 385.554688 538.464844 L 385.554688 386.085938 C 385.554688 380.773438 381.304688 376.519531 375.992188 376.519531 L 223.714844 376.519531 C 218.402344 376.519531 214.152344 380.773438 214.152344 386.085938 L 214.152344 538.464844 L 71.320312 538.464844 L 71.320312 300.332031 C 71.320312 299.859375 71.082031 299.503906 71.082031 299.03125 L 299.851562 112.632812 L 528.621094 299.148438 C 528.503906 299.503906 528.386719 299.976562 528.386719 300.332031 Z M 556.246094 297.140625 L 305.875 92.90625 C 304.101562 91.488281 301.976562 90.78125 299.851562 90.78125 C 297.726562 90.78125 295.605469 91.488281 293.832031 92.90625 L 43.460938 297.140625 L 28.46875 282.140625 L 299.851562 64.914062 L 571.234375 282.140625 Z M 556.246094 297.140625 " fill-opacity="1" fill-rule="nonzero"/></g></svg>