<svg xmlns="http://www.w3.org/2000/svg" xmlns:xlink="http://www.w3.org/1999/xlink" width="800" zoomAndPan="magnify" viewBox="0 0 600 599.999999" height="800" preserveAspectRatio="xMidYMid meet" version="1.0"><defs><clipPath id="b6a9051727"><path d="M 8.664062 9 L 591.414062 9 L 591.414062 591.414062 L 8.664062 591.414062 Z M 8.664062 9 " clip-rule="nonzero"/></clipPath></defs><g clip-path="url(#b6a9051727)"><path fill="#000000" d="M 75.527344 264.675781 C 72.949219 269.175781 67.214844 270.734375 62.730469 268.15625 L 34.621094 252.097656 C 30.121094 249.523438 28.5625 243.785156 31.140625 239.304688 C 33.71875 234.804688 39.453125 233.246094 43.9375 235.824219 L 72.046875 251.882812 C 76.53125 254.441406 78.089844 260.179688 75.527344 264.675781 Z M 591.222656 259.277344 C 591.484375 262.769531 589.769531 266.277344 586.535156 268.128906 L 450.332031 345.953125 L 450.332031 500.789062 C 450.59375 504.285156 448.878906 507.792969 445.644531 509.640625 L 305.148438 589.929688 C 305.105469 589.957031 305.046875 589.988281 304.988281 590.015625 C 304.726562 590.175781 304.449219 590.320312 304.171875 590.46875 C 304.085938 590.511719 304 590.554688 303.910156 590.597656 C 303.5625 590.757812 303.199219 590.890625 302.832031 591.003906 C 302.761719 591.019531 302.6875 591.035156 302.628906 591.0625 C 302.308594 591.152344 301.988281 591.222656 301.667969 591.28125 C 301.550781 591.296875 301.449219 591.3125 301.335938 591.324219 C 300.941406 591.382812 300.535156 591.414062 300.125 591.414062 C 299.71875 591.414062 299.3125 591.382812 298.917969 591.324219 C 298.800781 591.3125 298.699219 591.296875 298.582031 591.28125 C 298.246094 591.222656 297.925781 591.152344 297.621094 591.0625 C 297.550781 591.050781 297.476562 591.035156 297.402344 591.003906 C 297.039062 590.890625 296.675781 590.757812 296.328125 590.597656 C 296.238281 590.554688 296.152344 590.511719 296.050781 590.46875 C 295.773438 590.335938 295.496094 590.175781 295.234375 590.015625 C 295.191406 589.988281 295.132812 589.957031 295.074219 589.929688 L 154.578125 509.640625 C 151.332031 507.777344 149.628906 504.285156 149.890625 500.789062 L 149.890625 345.953125 L 13.671875 268.140625 C 10.425781 266.277344 8.722656 262.785156 8.984375 259.292969 L 8.984375 99.707031 C 8.722656 96.214844 10.425781 92.71875 13.671875 90.871094 L 154.5625 10.367188 C 157.355469 8.78125 160.894531 8.664062 163.878906 10.367188 L 300.097656 88.207031 L 436.328125 10.351562 C 439.125 8.765625 442.660156 8.648438 445.644531 10.351562 L 586.523438 90.855469 C 587.933594 91.65625 589.140625 92.835938 590 94.335938 C 590.960938 96.023438 591.355469 97.886719 591.210938 99.679688 Z M 37.226562 99.007812 L 159.21875 168.699219 L 166.980469 164.257812 L 190.054688 151.066406 L 68.074219 81.378906 Z M 86.96875 70.578125 L 208.949219 140.28125 L 234.222656 125.839844 L 112.242188 56.136719 Z M 318.992188 98.996094 L 440.988281 168.683594 L 471.820312 151.066406 L 349.839844 81.367188 Z M 368.75 70.5625 L 490.730469 140.265625 L 516.003906 125.824219 L 394.023438 56.121094 Z M 375.113281 367.355469 L 253.132812 297.652344 L 227.859375 312.09375 L 349.839844 381.796875 Z M 290.75 115.140625 L 262.523438 131.269531 L 262.523438 160.71875 C 262.507812 163.964844 260.820312 167.125 257.792969 168.859375 L 214.902344 193.359375 C 213.449219 194.289062 211.714844 194.828125 209.851562 194.828125 C 204.671875 194.828125 200.464844 190.621094 200.464844 185.4375 L 200.464844 166.71875 L 168.609375 184.929688 L 168.609375 324.335938 L 207.347656 302.191406 L 290.75 254.546875 Z M 219.242188 169.265625 L 243.730469 155.273438 L 243.730469 142 L 236.726562 146.003906 L 219.226562 156.003906 L 219.226562 169.265625 Z M 309.457031 254.53125 L 431.597656 324.320312 L 431.597656 184.914062 L 309.457031 115.125 Z M 308.015625 405.683594 L 330.929688 392.597656 L 208.949219 322.894531 L 178.101562 340.523438 L 300.097656 410.210938 Z M 422.078125 340.507812 L 300.109375 270.804688 L 272.042969 286.847656 L 394.023438 356.550781 Z M 360.132812 410.792969 L 384.621094 396.804688 L 384.621094 383.527344 L 377.820312 387.414062 L 360.132812 397.53125 Z M 501.023438 169.265625 L 525.511719 155.273438 L 525.511719 142 L 518.550781 145.972656 L 501.023438 155.988281 Z M 412.917969 45.320312 L 534.898438 115.023438 L 562.96875 98.980469 L 440.988281 29.277344 Z M 131.152344 45.320312 L 253.132812 115.023438 L 281.199219 98.980469 L 159.21875 29.277344 Z M 27.691406 254.546875 L 149.832031 324.335938 L 149.832031 184.929688 L 27.691406 115.140625 Z M 168.566406 496.058594 L 290.707031 565.851562 L 290.707031 426.445312 L 168.566406 356.652344 Z M 348.238281 543.722656 L 431.640625 496.074219 L 431.640625 356.667969 L 403.414062 372.796875 L 403.414062 402.25 C 403.398438 405.496094 401.710938 408.65625 398.683594 410.386719 L 355.796875 434.886719 C 354.339844 435.820312 352.605469 436.359375 350.742188 436.359375 C 345.5625 436.359375 341.355469 432.152344 341.355469 426.96875 L 341.355469 408.246094 L 309.5 426.457031 L 309.5 565.863281 Z M 489.117188 302.191406 L 572.515625 254.546875 L 572.515625 115.140625 L 544.289062 131.269531 L 544.289062 160.71875 C 544.273438 163.964844 542.585938 167.125 539.558594 168.859375 L 496.671875 193.359375 C 495.214844 194.289062 493.484375 194.828125 491.621094 194.828125 C 486.4375 194.828125 482.230469 190.621094 482.230469 185.4375 L 482.230469 166.730469 L 450.378906 184.945312 L 450.378906 324.351562 Z M 353.816406 251.867188 L 325.703125 235.808594 C 321.207031 233.234375 315.46875 234.804688 312.90625 239.289062 C 310.332031 243.785156 311.902344 249.523438 316.386719 252.085938 L 344.5 268.140625 C 348.996094 270.71875 354.730469 269.148438 357.292969 264.664062 C 359.855469 260.179688 358.300781 254.441406 353.816406 251.867188 Z M 212.925781 493.394531 L 184.8125 477.339844 C 180.316406 474.761719 174.578125 476.332031 172.015625 480.816406 C 169.441406 485.316406 171.011719 491.050781 175.496094 493.613281 L 203.605469 509.671875 C 208.105469 512.246094 213.839844 510.675781 216.402344 506.191406 C 218.980469 501.707031 217.421875 495.972656 212.925781 493.394531 Z M 212.925781 493.394531 " fill-opacity="1" fill-rule="nonzero"/></g></svg>